<svg width="25" height="24" viewBox="0 0 25 24" fill="none" xmlns="http://www.w3.org/2000/svg">
<path d="M16.2985 7C16.2985 7.92379 15.9197 8.89073 15.2942 9.62423C14.6698 10.3565 13.8514 10.8 12.9985 10.8C12.0244 10.8 11.1922 10.5152 10.6172 10.0392C10.0555 9.57431 9.7 8.89756 9.7 8C9.7 7.02018 9.98832 6.04062 10.4929 5.32493C10.989 4.62128 11.6672 4.2 12.4985 4.2C13.4781 4.2 14.4576 4.48861 15.1734 4.99356C15.8771 5.49003 16.2985 6.16866 16.2985 7Z" stroke="#FFFDF5" stroke-width="1.4"/>
<path d="M13.0017 1.00037L13.0092 0.300413L13.0017 1.00037ZM13.5017 23.0004L12.992 23.4802C13.1218 23.618 13.3019 23.6974 13.4912 23.7003C13.6805 23.7031 13.8629 23.6292 13.9967 23.4953L13.5017 23.0004ZM6.50065 6.99973L5.80679 6.90717L6.50065 6.99973ZM12.9943 1.70033C14.7462 1.71894 16.1746 2.187 17.1641 3.14342C18.1475 4.09396 18.8018 5.62811 18.8018 8.00037H20.2017C20.2017 5.3723 19.4711 3.42626 18.1371 2.13679C16.8091 0.853201 14.9875 0.321425 13.0092 0.300413L12.9943 1.70033ZM18.8018 8.00037C18.8018 12.3434 17.3536 15.9735 15.894 18.5278C15.165 19.8036 14.4366 20.8049 13.8926 21.4849C13.6208 21.8247 13.3956 22.0836 13.2401 22.2558C13.1623 22.3419 13.1021 22.4062 13.0622 22.4481C13.0423 22.469 13.0274 22.4843 13.0181 22.4939C13.0134 22.4987 13.0101 22.5021 13.0082 22.504C13.0072 22.5049 13.0066 22.5055 13.0064 22.5058C13.0063 22.5059 13.0062 22.5059 13.0063 22.5059C13.0063 22.5058 13.0064 22.5057 13.0065 22.5057C13.0066 22.5056 13.0067 22.5054 13.5017 23.0004C13.9967 23.4953 13.997 23.4951 13.9972 23.4949C13.9973 23.4948 13.9975 23.4945 13.9977 23.4943C13.9982 23.4939 13.9987 23.4934 13.9993 23.4928C14.0005 23.4915 14.0021 23.49 14.004 23.488C14.0079 23.4841 14.0132 23.4787 14.0198 23.4719C14.0332 23.4582 14.052 23.4387 14.0761 23.4135C14.1241 23.3631 14.1927 23.2897 14.2791 23.1941C14.4517 23.003 14.6952 22.7228 14.9859 22.3594C15.5669 21.6331 16.3385 20.5718 17.1095 19.2224C18.6499 16.5266 20.2017 12.6567 20.2017 8.00037H18.8018ZM13.5017 23.0004C14.0115 22.5206 14.0115 22.5207 14.0116 22.5207C14.0116 22.5207 14.0116 22.5207 14.0116 22.5207C14.0115 22.5206 14.0113 22.5204 14.0109 22.52C14.0103 22.5193 14.0092 22.5181 14.0076 22.5164C14.0044 22.513 13.9993 22.5075 13.9924 22.5001C13.9786 22.4852 13.9575 22.4623 13.9297 22.4318C13.8741 22.3707 13.7915 22.2789 13.686 22.1587C13.4751 21.9184 13.173 21.5648 12.8128 21.1165C12.0916 20.219 11.1412 18.9467 10.223 17.447C8.36624 14.4148 6.72757 10.5922 7.1945 7.0923L5.80679 6.90717C5.27314 10.9072 7.13503 15.085 9.02901 18.1781C9.98608 19.7411 10.9736 21.0627 11.7215 21.9934C12.0958 22.4593 12.411 22.8284 12.6338 23.0822C12.7451 23.2091 12.8335 23.3073 12.8946 23.3744C12.9251 23.4079 12.9488 23.4337 12.9653 23.4514C12.9735 23.4603 12.9799 23.4671 12.9843 23.4719C12.9866 23.4743 12.9883 23.4762 12.9896 23.4776C12.9903 23.4783 12.9908 23.4788 12.9912 23.4793C12.9914 23.4795 12.9916 23.4797 12.9917 23.4798C12.9919 23.48 12.992 23.4802 13.5017 23.0004ZM7.1945 7.0923C7.44159 5.24018 8.18466 3.89592 9.1902 3.01815C10.1974 2.13895 11.517 1.68464 12.9943 1.70033L13.0092 0.300413C11.2306 0.281523 9.56585 0.831854 8.26952 1.96346C6.97157 3.0965 6.09202 4.76921 5.80679 6.90717L7.1945 7.0923Z" fill="#FFFDF5"/>
</svg>
