<svg width="16" height="20" viewBox="0 0 16 20" fill="none" xmlns="http://www.w3.org/2000/svg">
<path d="M0.999916 19L0.30307 19.0664C0.33729 19.4256 0.639029 19.7 0.999916 19.7V19ZM14.9993 19V19.7C15.3438 19.7 15.637 19.4494 15.6908 19.1092L14.9993 19ZM12.4993 5.5H11.7993C11.7993 5.68567 11.8731 5.86374 12.0044 5.99501L12.4993 5.5ZM12.4993 1H13.1993C13.1993 0.613401 12.8859 0.3 12.4993 0.3V1ZM2.99933 1V0.3C2.61273 0.3 2.29933 0.613401 2.29933 1L2.99933 1ZM2.99933 5.5L3.49434 5.99494C3.6256 5.86366 3.69933 5.68563 3.69933 5.5H2.99933ZM0.999916 19.7H14.9993V18.3H0.999916V19.7ZM14.9993 19C15.6908 19.1092 15.6908 19.109 15.6908 19.1088C15.6908 19.1087 15.6909 19.1084 15.6909 19.1081C15.691 19.1076 15.6911 19.107 15.6912 19.1062C15.6915 19.1046 15.6918 19.1024 15.6922 19.0997C15.6931 19.0943 15.6943 19.0865 15.6958 19.0766C15.6987 19.0567 15.703 19.0279 15.7083 18.9907C15.7188 18.9163 15.7335 18.8083 15.7507 18.6702C15.7849 18.3942 15.829 17.9977 15.869 17.5103C15.9488 16.5369 16.013 15.194 15.9489 13.7196C15.8231 10.8235 15.1958 7.20614 12.9943 5.00498L12.0044 5.99501C13.8035 7.79386 14.4262 10.9265 14.5502 13.7804C14.6111 15.181 14.5502 16.4631 14.4736 17.3959C14.4354 17.8616 14.3935 18.2386 14.3613 18.4977C14.3453 18.6273 14.3316 18.7272 14.3222 18.794C14.3174 18.8273 14.3137 18.8524 14.3113 18.8687C14.3101 18.8768 14.3091 18.8828 14.3086 18.8865C14.3083 18.8883 14.3081 18.8896 14.308 18.8903C14.3079 18.8907 14.3079 18.8909 14.3079 18.891C14.3079 18.891 14.3079 18.891 14.3079 18.891C14.3079 18.8909 14.3079 18.8908 14.9993 19ZM13.1993 5.5V1H11.7993V5.5H13.1993ZM12.4993 0.3H2.99933V1.7H12.4993V0.3ZM2.29933 1V5.5H3.69933V1H2.29933ZM2.50432 5.00506C1.61372 5.8958 1.07672 7.27167 0.739796 8.71597C0.397898 10.1816 0.238792 11.8235 0.175403 13.3459C0.111856 14.8721 0.143736 16.2997 0.191238 17.3443C0.215016 17.8672 0.242777 18.2956 0.264676 18.5942C0.275628 18.7435 0.285121 18.8604 0.291927 18.9406C0.29533 18.9807 0.298063 19.0115 0.299971 19.0327C0.300925 19.0433 0.301673 19.0514 0.302196 19.057C0.302457 19.0599 0.302663 19.0621 0.302809 19.0636C0.302882 19.0644 0.302941 19.065 0.302985 19.0655C0.303006 19.0657 0.303028 19.0659 0.303039 19.066C0.303056 19.0662 0.30307 19.0664 0.999916 19C1.69676 18.9336 1.69677 18.9337 1.69677 18.9337C1.69677 18.9337 1.69677 18.9337 1.69676 18.9336C1.69674 18.9334 1.69671 18.9331 1.69666 18.9326C1.69657 18.9316 1.69642 18.93 1.69621 18.9277C1.69579 18.9232 1.69515 18.9163 1.69431 18.9069C1.69261 18.8881 1.6901 18.8597 1.68691 18.8221C1.68053 18.747 1.67146 18.6354 1.66093 18.4918C1.63985 18.2044 1.61291 17.789 1.58979 17.2807C1.54351 16.2628 1.51283 14.8779 1.57419 13.4041C1.63571 11.9265 1.78899 10.3809 2.10319 9.03403C2.42236 7.66583 2.88518 6.6042 3.49434 5.99494L2.50432 5.00506Z" fill="#FFFDF5"/>
<path d="M12.5 5.5L13.0466 5.93729C13.2147 5.72717 13.2475 5.43929 13.1309 5.19677C13.0143 4.95424 12.7691 4.8 12.5 4.8V5.5ZM3 6.2H12.5V4.8H3V6.2ZM11.9534 5.06271C9.81523 7.73541 9.17812 11.2906 9.05072 14.0932C8.98647 15.5067 9.0507 16.7578 9.1309 17.656C9.17104 18.1056 9.21531 18.4682 9.24985 18.7201C9.26712 18.8461 9.28197 18.9445 9.29268 19.0124C9.29803 19.0463 9.30235 19.0726 9.30541 19.091C9.30695 19.1001 9.30817 19.1073 9.30905 19.1124C9.30949 19.115 9.30985 19.1171 9.31012 19.1186C9.31025 19.1194 9.31036 19.12 9.31045 19.1205C9.3105 19.1208 9.31055 19.121 9.31057 19.1212C9.31061 19.1214 9.31065 19.1216 10 19C10.6893 18.8783 10.6894 18.8785 10.6894 18.8786C10.6894 18.8786 10.6894 18.8787 10.6894 18.8787C10.6894 18.8787 10.6894 18.8786 10.6893 18.8783C10.6892 18.8778 10.6891 18.8767 10.6888 18.8752C10.6883 18.8721 10.6874 18.867 10.6862 18.86C10.6839 18.8458 10.6802 18.8238 10.6756 18.7943C10.6663 18.7352 10.6528 18.6461 10.6369 18.5299C10.605 18.2974 10.5633 17.9569 10.5254 17.5315C10.4493 16.6797 10.3885 15.4933 10.4493 14.1568C10.5719 11.4594 11.1848 8.26459 13.0466 5.93729L11.9534 5.06271Z" fill="#FFFDF5"/>
</svg>
