<svg width="21" height="21" viewBox="0 0 21 21" fill="none" xmlns="http://www.w3.org/2000/svg">
<path d="M1.5 15.5V14.8C1.1134 14.8 0.8 15.1134 0.8 15.5H1.5ZM19.5 15.5L20.1946 15.5868C20.2195 15.3876 20.1577 15.1873 20.0248 15.0367C19.8919 14.8862 19.7008 14.8 19.5 14.8V15.5ZM1.5 15.5C0.8 15.5 0.8 15.5004 0.8 15.5007C0.800001 15.5009 0.800001 15.5013 0.800002 15.5016C0.800003 15.5021 0.800005 15.5028 0.800007 15.5035C0.800013 15.5049 0.800022 15.5066 0.800037 15.5085C0.800067 15.5123 0.800121 15.517 0.800213 15.5228C0.800398 15.5342 0.800739 15.5495 0.801365 15.5682C0.802617 15.6058 0.805012 15.6576 0.809591 15.7217C0.818733 15.8497 0.836677 16.028 0.872024 16.2401C0.942165 16.6609 1.08375 17.2327 1.3739 17.813C1.66542 18.3961 2.1137 19.0004 2.79921 19.4574C3.48911 19.9174 4.37751 20.2 5.5 20.2V18.8C4.62249 18.8 4.01089 18.5826 3.57579 18.2926C3.1363 17.9996 2.83458 17.6039 2.6261 17.187C2.41625 16.7673 2.30783 16.3391 2.25298 16.0099C2.22582 15.847 2.21252 15.7128 2.20603 15.622C2.2028 15.5767 2.20129 15.5426 2.20059 15.5216C2.20024 15.5111 2.20009 15.5039 2.20003 15.5002C2.2 15.4983 2.19999 15.4974 2.19999 15.4973C2.19999 15.4973 2.19999 15.4975 2.2 15.498C2.2 15.4982 2.2 15.4985 2.2 15.4988C2.2 15.499 2.2 15.4993 2.2 15.4994C2.2 15.4997 2.2 15.5 1.5 15.5ZM5.5 20.2C5.50781 20.2 5.51562 20.2 5.52342 20.2C5.53122 20.2 5.53902 20.2 5.54681 20.2C5.5546 20.2 5.56238 20.2 5.57016 20.2C5.57794 20.2 5.58571 20.2 5.59348 20.2C5.60124 20.2 5.609 20.2 5.61676 20.2C5.62452 20.2 5.63227 20.2 5.64001 20.2C5.64776 20.2 5.65549 20.2 5.66323 20.2C5.67096 20.2 5.67869 20.2 5.68641 20.2C5.69413 20.2 5.70185 20.2 5.70956 20.2C5.71727 20.2 5.72498 20.2 5.73268 20.2C5.74038 20.2 5.74807 20.2 5.75576 20.2C5.76345 20.2 5.77113 20.2 5.77881 20.2C5.78649 20.2 5.79416 20.2 5.80183 20.2C5.80949 20.2 5.81716 20.2 5.82481 20.2C5.83247 20.2 5.84012 20.2 5.84776 20.2C5.85541 20.2 5.86305 20.2 5.87068 20.2C5.87832 20.2 5.88594 20.2 5.89357 20.2C5.90119 20.2 5.90881 20.2 5.91642 20.2C5.92403 20.2 5.93164 20.2 5.93924 20.2C5.94685 20.2 5.95444 20.2 5.96203 20.2C5.96962 20.2 5.97721 20.2 5.98479 20.2C5.99237 20.2 5.99995 20.2 6.00751 20.2C6.01508 20.2 6.02265 20.2 6.03021 20.2C6.03777 20.2 6.04532 20.2 6.05287 20.2C6.06042 20.2 6.06796 20.2 6.0755 20.2C6.08304 20.2 6.09057 20.2 6.0981 20.2C6.10563 20.2 6.11315 20.2 6.12067 20.2C6.12818 20.2 6.13569 20.2 6.1432 20.2C6.15071 20.2 6.15821 20.2 6.16571 20.2C6.1732 20.2 6.18069 20.2 6.18818 20.2C6.19566 20.2 6.20315 20.2 6.21062 20.2C6.2181 20.2 6.22557 20.2 6.23303 20.2C6.2405 20.2 6.24796 20.2 6.25541 20.2C6.26287 20.2 6.27032 20.2 6.27776 20.2C6.28521 20.2 6.29265 20.2 6.30008 20.2C6.30752 20.2 6.31495 20.2 6.32237 20.2C6.3298 20.2 6.33722 20.2 6.34463 20.2C6.35205 20.2 6.35945 20.2 6.36686 20.2C6.37426 20.2 6.38166 20.2 6.38906 20.2C6.39645 20.2 6.40384 20.2 6.41123 20.2C6.41861 20.2 6.42599 20.2 6.43336 20.2C6.44074 20.2 6.44811 20.2 6.45547 20.2C6.46284 20.2 6.4702 20.2 6.47755 20.2C6.48491 20.2 6.49226 20.2 6.4996 20.2C6.50695 20.2 6.51429 20.2 6.52162 20.2C6.52896 20.2 6.53629 20.2 6.54361 20.2C6.55094 20.2 6.55826 20.2 6.56558 20.2C6.57289 20.2 6.5802 20.2 6.58751 20.2C6.59482 20.2 6.60212 20.2 6.60941 20.2C6.61671 20.2 6.624 20.2 6.63129 20.2C6.63857 20.2 6.64586 20.2 6.65313 20.2C6.66041 20.2 6.66768 20.2 6.67495 20.2C6.68222 20.2 6.68948 20.2 6.69674 20.2C6.704 20.2 6.71125 20.2 6.7185 20.2C6.72575 20.2 6.73299 20.2 6.74023 20.2C6.74747 20.2 6.75471 20.2 6.76194 20.2C6.76917 20.2 6.77639 20.2 6.78361 20.2C6.79083 20.2 6.79805 20.2 6.80526 20.2C6.81247 20.2 6.81968 20.2 6.82688 20.2C6.83408 20.2 6.84128 20.2 6.84848 20.2C6.85567 20.2 6.86286 20.2 6.87004 20.2C6.87722 20.2 6.8844 20.2 6.89158 20.2C6.89875 20.2 6.90592 20.2 6.91309 20.2C6.92025 20.2 6.92741 20.2 6.93457 20.2C6.94173 20.2 6.94888 20.2 6.95603 20.2C6.96317 20.2 6.97032 20.2 6.97745 20.2C6.98459 20.2 6.99173 20.2 6.99886 20.2C7.00599 20.2 7.01311 20.2 7.02023 20.2C7.02735 20.2 7.03447 20.2 7.04158 20.2C7.04869 20.2 7.0558 20.2 7.0629 20.2C7.07 20.2 7.0771 20.2 7.08419 20.2C7.09129 20.2 7.09838 20.2 7.10546 20.2C7.11255 20.2 7.11963 20.2 7.12671 20.2C7.13378 20.2 7.14085 20.2 7.14792 20.2C7.15499 20.2 7.16205 20.2 7.16911 20.2C7.17617 20.2 7.18322 20.2 7.19028 20.2C7.19733 20.2 7.20437 20.2 7.21141 20.2C7.21845 20.2 7.22549 20.2 7.23253 20.2C7.23956 20.2 7.24659 20.2 7.25361 20.2C7.26064 20.2 7.26766 20.2 7.27467 20.2C7.28169 20.2 7.2887 20.2 7.29571 20.2C7.30272 20.2 7.30972 20.2 7.31672 20.2C7.32372 20.2 7.33071 20.2 7.33771 20.2C7.3447 20.2 7.35168 20.2 7.35867 20.2C7.36565 20.2 7.37263 20.2 7.3796 20.2C7.38658 20.2 7.39355 20.2 7.40051 20.2C7.40748 20.2 7.41444 20.2 7.4214 20.2C7.42836 20.2 7.43531 20.2 7.44226 20.2C7.44921 20.2 7.45615 20.2 7.4631 20.2C7.47004 20.2 7.47697 20.2 7.48391 20.2C7.49084 20.2 7.49777 20.2 7.5047 20.2C7.51162 20.2 7.51854 20.2 7.52546 20.2C7.53238 20.2 7.53929 20.2 7.5462 20.2C7.55311 20.2 7.56001 20.2 7.56692 20.2C7.57382 20.2 7.58071 20.2 7.58761 20.2C7.5945 20.2 7.60139 20.2 7.60828 20.2C7.61516 20.2 7.62204 20.2 7.62892 20.2C7.6358 20.2 7.64267 20.2 7.64954 20.2C7.65641 20.2 7.66328 20.2 7.67014 20.2C7.677 20.2 7.68386 20.2 7.69071 20.2C7.69757 20.2 7.70442 20.2 7.71127 20.2C7.71811 20.2 7.72496 20.2 7.73179 20.2C7.73863 20.2 7.74547 20.2 7.7523 20.2C7.75913 20.2 7.76596 20.2 7.77278 20.2C7.77961 20.2 7.78643 20.2 7.79324 20.2C7.80006 20.2 7.80687 20.2 7.81368 20.2C7.82049 20.2 7.82729 20.2 7.8341 20.2C7.8409 20.2 7.84769 20.2 7.85449 20.2C7.86128 20.2 7.86807 20.2 7.87486 20.2C7.88164 20.2 7.88843 20.2 7.89521 20.2C7.90199 20.2 7.90876 20.2 7.91553 20.2C7.9223 20.2 7.92907 20.2 7.93584 20.2C7.9426 20.2 7.94936 20.2 7.95612 20.2C7.96288 20.2 7.96963 20.2 7.97638 20.2C7.98313 20.2 7.98988 20.2 7.99662 20.2C8.00336 20.2 8.0101 20.2 8.01684 20.2C8.02357 20.2 8.0303 20.2 8.03703 20.2C8.04376 20.2 8.05049 20.2 8.05721 20.2C8.06393 20.2 8.07065 20.2 8.07736 20.2C8.08408 20.2 8.09079 20.2 8.09749 20.2C8.1042 20.2 8.11091 20.2 8.11761 20.2C8.12431 20.2 8.131 20.2 8.1377 20.2C8.14439 20.2 8.15108 20.2 8.15777 20.2C8.16445 20.2 8.17114 20.2 8.17782 20.2C8.1845 20.2 8.19117 20.2 8.19785 20.2C8.20452 20.2 8.21119 20.2 8.21786 20.2C8.22452 20.2 8.23118 20.2 8.23784 20.2C8.2445 20.2 8.25116 20.2 8.25781 20.2C8.26447 20.2 8.27111 20.2 8.27776 20.2C8.28441 20.2 8.29105 20.2 8.29769 20.2C8.30433 20.2 8.31097 20.2 8.3176 20.2C8.32423 20.2 8.33086 20.2 8.33749 20.2C8.34411 20.2 8.35074 20.2 8.35736 20.2C8.36398 20.2 8.37059 20.2 8.37721 20.2C8.38382 20.2 8.39043 20.2 8.39704 20.2C8.40364 20.2 8.41025 20.2 8.41685 20.2C8.42345 20.2 8.43005 20.2 8.43664 20.2C8.44324 20.2 8.44983 20.2 8.45641 20.2C8.463 20.2 8.46959 20.2 8.47617 20.2C8.48275 20.2 8.48933 20.2 8.4959 20.2C8.50248 20.2 8.50905 20.2 8.51562 20.2C8.52219 20.2 8.52876 20.2 8.53532 20.2C8.54188 20.2 8.54844 20.2 8.555 20.2C8.56156 20.2 8.56811 20.2 8.57466 20.2C8.58121 20.2 8.58776 20.2 8.5943 20.2C8.60085 20.2 8.60739 20.2 8.61393 20.2C8.62047 20.2 8.627 20.2 8.63354 20.2C8.64007 20.2 8.6466 20.2 8.65313 20.2C8.65965 20.2 8.66618 20.2 8.6727 20.2C8.67922 20.2 8.68574 20.2 8.69225 20.2C8.69877 20.2 8.70528 20.2 8.71179 20.2C8.7183 20.2 8.7248 20.2 8.73131 20.2C8.73781 20.2 8.74431 20.2 8.75081 20.2C8.75731 20.2 8.7638 20.2 8.77029 20.2C8.77678 20.2 8.78327 20.2 8.78976 20.2C8.79624 20.2 8.80273 20.2 8.80921 20.2C8.81569 20.2 8.82217 20.2 8.82864 20.2C8.83512 20.2 8.84159 20.2 8.84806 20.2C8.85453 20.2 8.86099 20.2 8.86746 20.2C8.87392 20.2 8.88038 20.2 8.88684 20.2C8.8933 20.2 8.89975 20.2 8.90621 20.2C8.91266 20.2 8.91911 20.2 8.92556 20.2C8.932 20.2 8.93845 20.2 8.94489 20.2C8.95133 20.2 8.95777 20.2 8.96421 20.2C8.97065 20.2 8.97708 20.2 8.98351 20.2C8.98994 20.2 8.99637 20.2 9.0028 20.2C9.00922 20.2 9.01565 20.2 9.02207 20.2C9.02849 20.2 9.03491 20.2 9.04132 20.2C9.04774 20.2 9.05415 20.2 9.06056 20.2C9.06697 20.2 9.07338 20.2 9.07979 20.2C9.08619 20.2 9.09259 20.2 9.09899 20.2C9.10539 20.2 9.11179 20.2 9.11819 20.2C9.12458 20.2 9.13097 20.2 9.13736 20.2C9.14375 20.2 9.15014 20.2 9.15653 20.2C9.16291 20.2 9.1693 20.2 9.17568 20.2C9.18206 20.2 9.18843 20.2 9.19481 20.2C9.20118 20.2 9.20756 20.2 9.21393 20.2C9.2203 20.2 9.22667 20.2 9.23303 20.2C9.2394 20.2 9.24576 20.2 9.25212 20.2C9.25848 20.2 9.26484 20.2 9.2712 20.2C9.27755 20.2 9.28391 20.2 9.29026 20.2C9.29661 20.2 9.30296 20.2 9.3093 20.2C9.31565 20.2 9.322 20.2 9.32834 20.2C9.33468 20.2 9.34102 20.2 9.34736 20.2C9.35369 20.2 9.36003 20.2 9.36636 20.2C9.37269 20.2 9.37903 20.2 9.38535 20.2C9.39168 20.2 9.39801 20.2 9.40433 20.2C9.41066 20.2 9.41698 20.2 9.4233 20.2C9.42962 20.2 9.43593 20.2 9.44225 20.2C9.44856 20.2 9.45488 20.2 9.46119 20.2C9.4675 20.2 9.4738 20.2 9.48011 20.2C9.48642 20.2 9.49272 20.2 9.49902 20.2C9.50533 20.2 9.51163 20.2 9.51792 20.2C9.52422 20.2 9.53052 20.2 9.53681 20.2C9.5431 20.2 9.54939 20.2 9.55568 20.2C9.56197 20.2 9.56826 20.2 9.57454 20.2C9.58083 20.2 9.58711 20.2 9.59339 20.2C9.59967 20.2 9.60595 20.2 9.61223 20.2C9.61851 20.2 9.62478 20.2 9.63105 20.2C9.63733 20.2 9.6436 20.2 9.64987 20.2C9.65613 20.2 9.6624 20.2 9.66867 20.2C9.67493 20.2 9.68119 20.2 9.68746 20.2C9.69372 20.2 9.69997 20.2 9.70623 20.2C9.71249 20.2 9.71874 20.2 9.725 20.2C9.73125 20.2 9.7375 20.2 9.74375 20.2C9.75 20.2 9.75625 20.2 9.76249 20.2C9.76874 20.2 9.77498 20.2 9.78122 20.2C9.78746 20.2 9.7937 20.2 9.79994 20.2C9.80618 20.2 9.81242 20.2 9.81865 20.2C9.82488 20.2 9.83112 20.2 9.83735 20.2C9.84358 20.2 9.84981 20.2 9.85603 20.2C9.86226 20.2 9.86849 20.2 9.87471 20.2C9.88093 20.2 9.88716 20.2 9.89338 20.2C9.8996 20.2 9.90581 20.2 9.91203 20.2C9.91825 20.2 9.92446 20.2 9.93067 20.2C9.93689 20.2 9.9431 20.2 9.94931 20.2C9.95552 20.2 9.96173 20.2 9.96793 20.2C9.97414 20.2 9.98034 20.2 9.98655 20.2C9.99275 20.2 9.99895 20.2 10.0051 20.2C10.0113 20.2 10.0175 20.2 10.0237 20.2C10.0299 20.2 10.0361 20.2 10.0423 20.2C10.0485 20.2 10.0547 20.2 10.0609 20.2C10.0671 20.2 10.0733 20.2 10.0795 20.2C10.0857 20.2 10.0918 20.2 10.098 20.2C10.1042 20.2 10.1104 20.2 10.1166 20.2C10.1227 20.2 10.1289 20.2 10.1351 20.2C10.1413 20.2 10.1475 20.2 10.1536 20.2C10.1598 20.2 10.166 20.2 10.1722 20.2C10.1783 20.2 10.1845 20.2 10.1907 20.2C10.1968 20.2 10.203 20.2 10.2092 20.2C10.2153 20.2 10.2215 20.2 10.2277 20.2C10.2338 20.2 10.24 20.2 10.2461 20.2C10.2523 20.2 10.2585 20.2 10.2646 20.2C10.2708 20.2 10.2769 20.2 10.2831 20.2C10.2892 20.2 10.2954 20.2 10.3015 20.2C10.3077 20.2 10.3138 20.2 10.32 20.2C10.3261 20.2 10.3323 20.2 10.3384 20.2C10.3446 20.2 10.3507 20.2 10.3569 20.2C10.363 20.2 10.3692 20.2 10.3753 20.2C10.3814 20.2 10.3876 20.2 10.3937 20.2C10.3999 20.2 10.406 20.2 10.4121 20.2C10.4183 20.2 10.4244 20.2 10.4305 20.2C10.4367 20.2 10.4428 20.2 10.4489 20.2C10.4551 20.2 10.4612 20.2 10.4673 20.2C10.4735 20.2 10.4796 20.2 10.4857 20.2C10.4918 20.2 10.498 20.2 10.5041 20.2C10.5102 20.2 10.5163 20.2 10.5225 20.2C10.5286 20.2 10.5347 20.2 10.5408 20.2C10.5469 20.2 10.5531 20.2 10.5592 20.2C10.5653 20.2 10.5714 20.2 10.5775 20.2C10.5836 20.2 10.5898 20.2 10.5959 20.2C10.602 20.2 10.6081 20.2 10.6142 20.2C10.6203 20.2 10.6264 20.2 10.6325 20.2C10.6387 20.2 10.6448 20.2 10.6509 20.2C10.657 20.2 10.6631 20.2 10.6692 20.2C10.6753 20.2 10.6814 20.2 10.6875 20.2C10.6936 20.2 10.6997 20.2 10.7058 20.2C10.7119 20.2 10.718 20.2 10.7241 20.2C10.7302 20.2 10.7363 20.2 10.7424 20.2C10.7485 20.2 10.7546 20.2 10.7607 20.2C10.7668 20.2 10.7729 20.2 10.779 20.2C10.7851 20.2 10.7912 20.2 10.7973 20.2C10.8034 20.2 10.8094 20.2 10.8155 20.2C10.8216 20.2 10.8277 20.2 10.8338 20.2C10.8399 20.2 10.846 20.2 10.8521 20.2C10.8582 20.2 10.8643 20.2 10.8703 20.2C10.8764 20.2 10.8825 20.2 10.8886 20.2C10.8947 20.2 10.9008 20.2 10.9068 20.2C10.9129 20.2 10.919 20.2 10.9251 20.2C10.9312 20.2 10.9373 20.2 10.9433 20.2C10.9494 20.2 10.9555 20.2 10.9616 20.2C10.9677 20.2 10.9737 20.2 10.9798 20.2C10.9859 20.2 10.992 20.2 10.998 20.2C11.0041 20.2 11.0102 20.2 11.0163 20.2C11.0223 20.2 11.0284 20.2 11.0345 20.2C11.0406 20.2 11.0466 20.2 11.0527 20.2C11.0588 20.2 11.0649 20.2 11.0709 20.2C11.077 20.2 11.0831 20.2 11.0891 20.2C11.0952 20.2 11.1013 20.2 11.1074 20.2C11.1134 20.2 11.1195 20.2 11.1256 20.2C11.1316 20.2 11.1377 20.2 11.1438 20.2C11.1498 20.2 11.1559 20.2 11.162 20.2C11.168 20.2 11.1741 20.2 11.1802 20.2C11.1862 20.2 11.1923 20.2 11.1984 20.2C11.2044 20.2 11.2105 20.2 11.2166 20.2C11.2226 20.2 11.2287 20.2 11.2347 20.2C11.2408 20.2 11.2469 20.2 11.2529 20.2C11.259 20.2 11.2651 20.2 11.2711 20.2C11.2772 20.2 11.2832 20.2 11.2893 20.2C11.2954 20.2 11.3014 20.2 11.3075 20.2C11.3135 20.2 11.3196 20.2 11.3257 20.2C11.3317 20.2 11.3378 20.2 11.3438 20.2C11.3499 20.2 11.356 20.2 11.362 20.2C11.3681 20.2 11.3741 20.2 11.3802 20.2C11.3862 20.2 11.3923 20.2 11.3984 20.2C11.4044 20.2 11.4105 20.2 11.4165 20.2C11.4226 20.2 11.4286 20.2 11.4347 20.2C11.4408 20.2 11.4468 20.2 11.4529 20.2C11.4589 20.2 11.465 20.2 11.471 20.2C11.4771 20.2 11.4832 20.2 11.4892 20.2C11.4953 20.2 11.5013 20.2 11.5074 20.2C11.5134 20.2 11.5195 20.2 11.5255 20.2C11.5316 20.2 11.5377 20.2 11.5437 20.2C11.5498 20.2 11.5558 20.2 11.5619 20.2C11.5679 20.2 11.574 20.2 11.58 20.2C11.5861 20.2 11.5921 20.2 11.5982 20.2C11.6043 20.2 11.6103 20.2 11.6164 20.2C11.6224 20.2 11.6285 20.2 11.6345 20.2C11.6406 20.2 11.6466 20.2 11.6527 20.2C11.6588 20.2 11.6648 20.2 11.6709 20.2C11.6769 20.2 11.683 20.2 11.689 20.2C11.6951 20.2 11.7011 20.2 11.7072 20.2C11.7132 20.2 11.7193 20.2 11.7254 20.2C11.7314 20.2 11.7375 20.2 11.7435 20.2C11.7496 20.2 11.7556 20.2 11.7617 20.2C11.7677 20.2 11.7738 20.2 11.7799 20.2C11.7859 20.2 11.792 20.2 11.798 20.2C11.8041 20.2 11.8101 20.2 11.8162 20.2C11.8223 20.2 11.8283 20.2 11.8344 20.2C11.8404 20.2 11.8465 20.2 11.8525 20.2C11.8586 20.2 11.8647 20.2 11.8707 20.2C11.8768 20.2 11.8828 20.2 11.8889 20.2C11.8949 20.2 11.901 20.2 11.9071 20.2C11.9131 20.2 11.9192 20.2 11.9252 20.2C11.9313 20.2 11.9374 20.2 11.9434 20.2C11.9495 20.2 11.9555 20.2 11.9616 20.2C11.9677 20.2 11.9737 20.2 11.9798 20.2C11.9859 20.2 11.9919 20.2 11.998 20.2C12.004 20.2 12.0101 20.2 12.0162 20.2C12.0222 20.2 12.0283 20.2 12.0344 20.2C12.0404 20.2 12.0465 20.2 12.0526 20.2C12.0586 20.2 12.0647 20.2 12.0708 20.2C12.0768 20.2 12.0829 20.2 12.089 20.2C12.095 20.2 12.1011 20.2 12.1072 20.2C12.1132 20.2 12.1193 20.2 12.1254 20.2C12.1314 20.2 12.1375 20.2 12.1436 20.2C12.1496 20.2 12.1557 20.2 12.1618 20.2C12.1679 20.2 12.1739 20.2 12.18 20.2C12.1861 20.2 12.1921 20.2 12.1982 20.2C12.2043 20.2 12.2104 20.2 12.2164 20.2C12.2225 20.2 12.2286 20.2 12.2347 20.2C12.2407 20.2 12.2468 20.2 12.2529 20.2C12.259 20.2 12.265 20.2 12.2711 20.2C12.2772 20.2 12.2833 20.2 12.2894 20.2C12.2954 20.2 12.3015 20.2 12.3076 20.2C12.3137 20.2 12.3198 20.2 12.3259 20.2C12.3319 20.2 12.338 20.2 12.3441 20.2C12.3502 20.2 12.3563 20.2 12.3624 20.2C12.3684 20.2 12.3745 20.2 12.3806 20.2C12.3867 20.2 12.3928 20.2 12.3989 20.2C12.405 20.2 12.4111 20.2 12.4172 20.2C12.4232 20.2 12.4293 20.2 12.4354 20.2C12.4415 20.2 12.4476 20.2 12.4537 20.2C12.4598 20.2 12.4659 20.2 12.472 20.2C12.4781 20.2 12.4842 20.2 12.4903 20.2C12.4964 20.2 12.5025 20.2 12.5086 20.2C12.5147 20.2 12.5208 20.2 12.5269 20.2C12.533 20.2 12.5391 20.2 12.5452 20.2C12.5513 20.2 12.5574 20.2 12.5635 20.2C12.5696 20.2 12.5757 20.2 12.5818 20.2C12.5879 20.2 12.594 20.2 12.6001 20.2C12.6062 20.2 12.6123 20.2 12.6185 20.2C12.6246 20.2 12.6307 20.2 12.6368 20.2C12.6429 20.2 12.649 20.2 12.6551 20.2C12.6612 20.2 12.6674 20.2 12.6735 20.2C12.6796 20.2 12.6857 20.2 12.6918 20.2C12.698 20.2 12.7041 20.2 12.7102 20.2C12.7163 20.2 12.7224 20.2 12.7286 20.2C12.7347 20.2 12.7408 20.2 12.7469 20.2C12.7531 20.2 12.7592 20.2 12.7653 20.2C12.7714 20.2 12.7776 20.2 12.7837 20.2C12.7898 20.2 12.796 20.2 12.8021 20.2C12.8082 20.2 12.8144 20.2 12.8205 20.2C12.8266 20.2 12.8328 20.2 12.8389 20.2C12.845 20.2 12.8512 20.2 12.8573 20.2C12.8635 20.2 12.8696 20.2 12.8758 20.2C12.8819 20.2 12.888 20.2 12.8942 20.2C12.9003 20.2 12.9065 20.2 12.9126 20.2C12.9188 20.2 12.9249 20.2 12.9311 20.2C12.9372 20.2 12.9434 20.2 12.9495 20.2C12.9557 20.2 12.9618 20.2 12.968 20.2C12.9742 20.2 12.9803 20.2 12.9865 20.2C12.9926 20.2 12.9988 20.2 13.0049 20.2C13.0111 20.2 13.0173 20.2 13.0234 20.2C13.0296 20.2 13.0358 20.2 13.0419 20.2C13.0481 20.2 13.0543 20.2 13.0604 20.2C13.0666 20.2 13.0728 20.2 13.079 20.2C13.0851 20.2 13.0913 20.2 13.0975 20.2C13.1037 20.2 13.1098 20.2 13.116 20.2C13.1222 20.2 13.1284 20.2 13.1346 20.2C13.1407 20.2 13.1469 20.2 13.1531 20.2C13.1593 20.2 13.1655 20.2 13.1717 20.2C13.1779 20.2 13.184 20.2 13.1902 20.2C13.1964 20.2 13.2026 20.2 13.2088 20.2C13.215 20.2 13.2212 20.2 13.2274 20.2C13.2336 20.2 13.2398 20.2 13.246 20.2C13.2522 20.2 13.2584 20.2 13.2646 20.2C13.2708 20.2 13.277 20.2 13.2832 20.2C13.2894 20.2 13.2957 20.2 13.3019 20.2C13.3081 20.2 13.3143 20.2 13.3205 20.2C13.3267 20.2 13.3329 20.2 13.3392 20.2C13.3454 20.2 13.3516 20.2 13.3578 20.2C13.364 20.2 13.3703 20.2 13.3765 20.2C13.3827 20.2 13.3889 20.2 13.3952 20.2C13.4014 20.2 13.4076 20.2 13.4139 20.2C13.4201 20.2 13.4263 20.2 13.4326 20.2C13.4388 20.2 13.445 20.2 13.4513 20.2C13.4575 20.2 13.4638 20.2 13.47 20.2C13.4763 20.2 13.4825 20.2 13.4888 20.2C13.495 20.2 13.5012 20.2 13.5075 20.2C13.5138 20.2 13.52 20.2 13.5263 20.2C13.5325 20.2 13.5388 20.2 13.545 20.2C13.5513 20.2 13.5576 20.2 13.5638 20.2C13.5701 20.2 13.5763 20.2 13.5826 20.2C13.5889 20.2 13.5951 20.2 13.6014 20.2C13.6077 20.2 13.614 20.2 13.6202 20.2C13.6265 20.2 13.6328 20.2 13.6391 20.2C13.6454 20.2 13.6516 20.2 13.6579 20.2C13.6642 20.2 13.6705 20.2 13.6768 20.2C13.6831 20.2 13.6893 20.2 13.6956 20.2C13.7019 20.2 13.7082 20.2 13.7145 20.2C13.7208 20.2 13.7271 20.2 13.7334 20.2C13.7397 20.2 13.746 20.2 13.7523 20.2C13.7586 20.2 13.7649 20.2 13.7712 20.2C13.7776 20.2 13.7839 20.2 13.7902 20.2C13.7965 20.2 13.8028 20.2 13.8091 20.2C13.8154 20.2 13.8218 20.2 13.8281 20.2C13.8344 20.2 13.8407 20.2 13.8471 20.2C13.8534 20.2 13.8597 20.2 13.866 20.2C13.8724 20.2 13.8787 20.2 13.885 20.2C13.8914 20.2 13.8977 20.2 13.9041 20.2C13.9104 20.2 13.9167 20.2 13.9231 20.2C13.9294 20.2 13.9358 20.2 13.9421 20.2C13.9485 20.2 13.9548 20.2 13.9612 20.2C13.9675 20.2 13.9739 20.2 13.9802 20.2C13.9866 20.2 13.993 20.2 13.9993 20.2C14.0057 20.2 14.0121 20.2 14.0184 20.2C14.0248 20.2 14.0312 20.2 14.0375 20.2C14.0439 20.2 14.0503 20.2 14.0567 20.2C14.063 20.2 14.0694 20.2 14.0758 20.2C14.0822 20.2 14.0886 20.2 14.095 20.2C14.1014 20.2 14.1077 20.2 14.1141 20.2C14.1205 20.2 14.1269 20.2 14.1333 20.2C14.1397 20.2 14.1461 20.2 14.1525 20.2C14.1589 20.2 14.1653 20.2 14.1717 20.2C14.1782 20.2 14.1846 20.2 14.191 20.2C14.1974 20.2 14.2038 20.2 14.2102 20.2C14.2166 20.2 14.2231 20.2 14.2295 20.2C14.2359 20.2 14.2423 20.2 14.2488 20.2C14.2552 20.2 14.2616 20.2 14.2681 20.2C14.2745 20.2 14.2809 20.2 14.2874 20.2C14.2938 20.2 14.3003 20.2 14.3067 20.2C14.3132 20.2 14.3196 20.2 14.3261 20.2C14.3325 20.2 14.339 20.2 14.3454 20.2C14.3519 20.2 14.3583 20.2 14.3648 20.2C14.3712 20.2 14.3777 20.2 14.3842 20.2C14.3906 20.2 14.3971 20.2 14.4036 20.2C14.4101 20.2 14.4165 20.2 14.423 20.2C14.4295 20.2 14.436 20.2 14.4425 20.2C14.4489 20.2 14.4554 20.2 14.4619 20.2C14.4684 20.2 14.4749 20.2 14.4814 20.2C14.4879 20.2 14.4944 20.2 14.5009 20.2C14.5074 20.2 14.5139 20.2 14.5204 20.2C14.5269 20.2 14.5334 20.2 14.5399 20.2C14.5464 20.2 14.553 20.2 14.5595 20.2C14.566 20.2 14.5725 20.2 14.579 20.2C14.5856 20.2 14.5921 20.2 14.5986 20.2C14.6052 20.2 14.6117 20.2 14.6182 20.2C14.6248 20.2 14.6313 20.2 14.6378 20.2C14.6444 20.2 14.6509 20.2 14.6575 20.2C14.664 20.2 14.6706 20.2 14.6771 20.2C14.6837 20.2 14.6902 20.2 14.6968 20.2C14.7034 20.2 14.7099 20.2 14.7165 20.2C14.7231 20.2 14.7296 20.2 14.7362 20.2C14.7428 20.2 14.7494 20.2 14.7559 20.2C14.7625 20.2 14.7691 20.2 14.7757 20.2C14.7823 20.2 14.7889 20.2 14.7954 20.2C14.802 20.2 14.8086 20.2 14.8152 20.2C14.8218 20.2 14.8284 20.2 14.835 20.2C14.8416 20.2 14.8482 20.2 14.8549 20.2C14.8615 20.2 14.8681 20.2 14.8747 20.2C14.8813 20.2 14.8879 20.2 14.8946 20.2C14.9012 20.2 14.9078 20.2 14.9144 20.2C14.9211 20.2 14.9277 20.2 14.9343 20.2C14.941 20.2 14.9476 20.2 14.9543 20.2C14.9609 20.2 14.9676 20.2 14.9742 20.2C14.9809 20.2 14.9875 20.2 14.9942 20.2C15.0008 20.2 15.0075 20.2 15.0141 20.2C15.0208 20.2 15.0275 20.2 15.0341 20.2C15.0408 20.2 15.0475 20.2 15.0542 20.2C15.0608 20.2 15.0675 20.2 15.0742 20.2C15.0809 20.2 15.0876 20.2 15.0943 20.2C15.101 20.2 15.1077 20.2 15.1144 20.2C15.1211 20.2 15.1278 20.2 15.1345 20.2C15.1412 20.2 15.1479 20.2 15.1546 20.2C15.1613 20.2 15.168 20.2 15.1747 20.2C15.1814 20.2 15.1882 20.2 15.1949 20.2C15.2016 20.2 15.2084 20.2 15.2151 20.2C15.2218 20.2 15.2286 20.2 15.2353 20.2C15.242 20.2 15.2488 20.2 15.2555 20.2C15.2623 20.2 15.269 20.2 15.2758 20.2C15.2825 20.2 15.2893 20.2 15.296 20.2C15.3028 20.2 15.3096 20.2 15.3163 20.2C15.3231 20.2 15.3299 20.2 15.3367 20.2C15.3434 20.2 15.3502 20.2 15.357 20.2C15.3638 20.2 15.3706 20.2 15.3774 20.2C15.3842 20.2 15.3909 20.2 15.3977 20.2C15.4045 20.2 15.4113 20.2 15.4182 20.2C15.425 20.2 15.4318 20.2 15.4386 20.2C15.4454 20.2 15.4522 20.2 15.459 20.2C15.4659 20.2 15.4727 20.2 15.4795 20.2C15.4863 20.2 15.4932 20.2 15.5 20.2V18.8C15.4932 18.8 15.4863 18.8 15.4795 18.8C15.4727 18.8 15.4659 18.8 15.459 18.8C15.4522 18.8 15.4454 18.8 15.4386 18.8C15.4318 18.8 15.425 18.8 15.4182 18.8C15.4113 18.8 15.4045 18.8 15.3977 18.8C15.3909 18.8 15.3842 18.8 15.3774 18.8C15.3706 18.8 15.3638 18.8 15.357 18.8C15.3502 18.8 15.3434 18.8 15.3367 18.8C15.3299 18.8 15.3231 18.8 15.3163 18.8C15.3096 18.8 15.3028 18.8 15.296 18.8C15.2893 18.8 15.2825 18.8 15.2758 18.8C15.269 18.8 15.2623 18.8 15.2555 18.8C15.2488 18.8 15.242 18.8 15.2353 18.8C15.2286 18.8 15.2218 18.8 15.2151 18.8C15.2084 18.8 15.2016 18.8 15.1949 18.8C15.1882 18.8 15.1814 18.8 15.1747 18.8C15.168 18.8 15.1613 18.8 15.1546 18.8C15.1479 18.8 15.1412 18.8 15.1345 18.8C15.1278 18.8 15.1211 18.8 15.1144 18.8C15.1077 18.8 15.101 18.8 15.0943 18.8C15.0876 18.8 15.0809 18.8 15.0742 18.8C15.0675 18.8 15.0608 18.8 15.0542 18.8C15.0475 18.8 15.0408 18.8 15.0341 18.8C15.0275 18.8 15.0208 18.8 15.0141 18.8C15.0075 18.8 15.0008 18.8 14.9942 18.8C14.9875 18.8 14.9809 18.8 14.9742 18.8C14.9676 18.8 14.9609 18.8 14.9543 18.8C14.9476 18.8 14.941 18.8 14.9343 18.8C14.9277 18.8 14.9211 18.8 14.9144 18.8C14.9078 18.8 14.9012 18.8 14.8946 18.8C14.8879 18.8 14.8813 18.8 14.8747 18.8C14.8681 18.8 14.8615 18.8 14.8549 18.8C14.8482 18.8 14.8416 18.8 14.835 18.8C14.8284 18.8 14.8218 18.8 14.8152 18.8C14.8086 18.8 14.802 18.8 14.7954 18.8C14.7889 18.8 14.7823 18.8 14.7757 18.8C14.7691 18.8 14.7625 18.8 14.7559 18.8C14.7494 18.8 14.7428 18.8 14.7362 18.8C14.7296 18.8 14.7231 18.8 14.7165 18.8C14.7099 18.8 14.7034 18.8 14.6968 18.8C14.6902 18.8 14.6837 18.8 14.6771 18.8C14.6706 18.8 14.664 18.8 14.6575 18.8C14.6509 18.8 14.6444 18.8 14.6378 18.8C14.6313 18.8 14.6248 18.8 14.6182 18.8C14.6117 18.8 14.6052 18.8 14.5986 18.8C14.5921 18.8 14.5856 18.8 14.579 18.8C14.5725 18.8 14.566 18.8 14.5595 18.8C14.553 18.8 14.5464 18.8 14.5399 18.8C14.5334 18.8 14.5269 18.8 14.5204 18.8C14.5139 18.8 14.5074 18.8 14.5009 18.8C14.4944 18.8 14.4879 18.8 14.4814 18.8C14.4749 18.8 14.4684 18.8 14.4619 18.8C14.4554 18.8 14.4489 18.8 14.4425 18.8C14.436 18.8 14.4295 18.8 14.423 18.8C14.4165 18.8 14.4101 18.8 14.4036 18.8C14.3971 18.8 14.3906 18.8 14.3842 18.8C14.3777 18.8 14.3712 18.8 14.3648 18.8C14.3583 18.8 14.3519 18.8 14.3454 18.8C14.339 18.8 14.3325 18.8 14.3261 18.8C14.3196 18.8 14.3132 18.8 14.3067 18.8C14.3003 18.8 14.2938 18.8 14.2874 18.8C14.2809 18.8 14.2745 18.8 14.2681 18.8C14.2616 18.8 14.2552 18.8 14.2488 18.8C14.2423 18.8 14.2359 18.8 14.2295 18.8C14.2231 18.8 14.2166 18.8 14.2102 18.8C14.2038 18.8 14.1974 18.8 14.191 18.8C14.1846 18.8 14.1782 18.8 14.1717 18.8C14.1653 18.8 14.1589 18.8 14.1525 18.8C14.1461 18.8 14.1397 18.8 14.1333 18.8C14.1269 18.8 14.1205 18.8 14.1141 18.8C14.1077 18.8 14.1014 18.8 14.095 18.8C14.0886 18.8 14.0822 18.8 14.0758 18.8C14.0694 18.8 14.063 18.8 14.0567 18.8C14.0503 18.8 14.0439 18.8 14.0375 18.8C14.0312 18.8 14.0248 18.8 14.0184 18.8C14.0121 18.8 14.0057 18.8 13.9993 18.8C13.993 18.8 13.9866 18.8 13.9802 18.8C13.9739 18.8 13.9675 18.8 13.9612 18.8C13.9548 18.8 13.9485 18.8 13.9421 18.8C13.9358 18.8 13.9294 18.8 13.9231 18.8C13.9167 18.8 13.9104 18.8 13.9041 18.8C13.8977 18.8 13.8914 18.8 13.885 18.8C13.8787 18.8 13.8724 18.8 13.866 18.8C13.8597 18.8 13.8534 18.8 13.8471 18.8C13.8407 18.8 13.8344 18.8 13.8281 18.8C13.8218 18.8 13.8154 18.8 13.8091 18.8C13.8028 18.8 13.7965 18.8 13.7902 18.8C13.7839 18.8 13.7776 18.8 13.7712 18.8C13.7649 18.8 13.7586 18.8 13.7523 18.8C13.746 18.8 13.7397 18.8 13.7334 18.8C13.7271 18.8 13.7208 18.8 13.7145 18.8C13.7082 18.8 13.7019 18.8 13.6956 18.8C13.6893 18.8 13.6831 18.8 13.6768 18.8C13.6705 18.8 13.6642 18.8 13.6579 18.8C13.6516 18.8 13.6454 18.8 13.6391 18.8C13.6328 18.8 13.6265 18.8 13.6202 18.8C13.614 18.8 13.6077 18.8 13.6014 18.8C13.5951 18.8 13.5889 18.8 13.5826 18.8C13.5763 18.8 13.5701 18.8 13.5638 18.8C13.5576 18.8 13.5513 18.8 13.545 18.8C13.5388 18.8 13.5325 18.8 13.5263 18.8C13.52 18.8 13.5138 18.8 13.5075 18.8C13.5012 18.8 13.495 18.8 13.4888 18.8C13.4825 18.8 13.4763 18.8 13.47 18.8C13.4638 18.8 13.4575 18.8 13.4513 18.8C13.445 18.8 13.4388 18.8 13.4326 18.8C13.4263 18.8 13.4201 18.8 13.4139 18.8C13.4076 18.8 13.4014 18.8 13.3952 18.8C13.3889 18.8 13.3827 18.8 13.3765 18.8C13.3703 18.8 13.364 18.8 13.3578 18.8C13.3516 18.8 13.3454 18.8 13.3392 18.8C13.3329 18.8 13.3267 18.8 13.3205 18.8C13.3143 18.8 13.3081 18.8 13.3019 18.8C13.2957 18.8 13.2894 18.8 13.2832 18.8C13.277 18.8 13.2708 18.8 13.2646 18.8C13.2584 18.8 13.2522 18.8 13.246 18.8C13.2398 18.8 13.2336 18.8 13.2274 18.8C13.2212 18.8 13.215 18.8 13.2088 18.8C13.2026 18.8 13.1964 18.8 13.1902 18.8C13.184 18.8 13.1779 18.8 13.1717 18.8C13.1655 18.8 13.1593 18.8 13.1531 18.8C13.1469 18.8 13.1407 18.8 13.1346 18.8C13.1284 18.8 13.1222 18.8 13.116 18.8C13.1098 18.8 13.1037 18.8 13.0975 18.8C13.0913 18.8 13.0851 18.8 13.079 18.8C13.0728 18.8 13.0666 18.8 13.0604 18.8C13.0543 18.8 13.0481 18.8 13.0419 18.8C13.0358 18.8 13.0296 18.8 13.0234 18.8C13.0173 18.8 13.0111 18.8 13.0049 18.8C12.9988 18.8 12.9926 18.8 12.9865 18.8C12.9803 18.8 12.9742 18.8 12.968 18.8C12.9618 18.8 12.9557 18.8 12.9495 18.8C12.9434 18.8 12.9372 18.8 12.9311 18.8C12.9249 18.8 12.9188 18.8 12.9126 18.8C12.9065 18.8 12.9003 18.8 12.8942 18.8C12.888 18.8 12.8819 18.8 12.8758 18.8C12.8696 18.8 12.8635 18.8 12.8573 18.8C12.8512 18.8 12.845 18.8 12.8389 18.8C12.8328 18.8 12.8266 18.8 12.8205 18.8C12.8144 18.8 12.8082 18.8 12.8021 18.8C12.796 18.8 12.7898 18.8 12.7837 18.8C12.7776 18.8 12.7714 18.8 12.7653 18.8C12.7592 18.8 12.7531 18.8 12.7469 18.8C12.7408 18.8 12.7347 18.8 12.7286 18.8C12.7224 18.8 12.7163 18.8 12.7102 18.8C12.7041 18.8 12.698 18.8 12.6918 18.8C12.6857 18.8 12.6796 18.8 12.6735 18.8C12.6674 18.8 12.6612 18.8 12.6551 18.8C12.649 18.8 12.6429 18.8 12.6368 18.8C12.6307 18.8 12.6246 18.8 12.6185 18.8C12.6123 18.8 12.6062 18.8 12.6001 18.8C12.594 18.8 12.5879 18.8 12.5818 18.8C12.5757 18.8 12.5696 18.8 12.5635 18.8C12.5574 18.8 12.5513 18.8 12.5452 18.8C12.5391 18.8 12.533 18.8 12.5269 18.8C12.5208 18.8 12.5147 18.8 12.5086 18.8C12.5025 18.8 12.4964 18.8 12.4903 18.8C12.4842 18.8 12.4781 18.8 12.472 18.8C12.4659 18.8 12.4598 18.8 12.4537 18.8C12.4476 18.8 12.4415 18.8 12.4354 18.8C12.4293 18.8 12.4232 18.8 12.4172 18.8C12.4111 18.8 12.405 18.8 12.3989 18.8C12.3928 18.8 12.3867 18.8 12.3806 18.8C12.3745 18.8 12.3684 18.8 12.3624 18.8C12.3563 18.8 12.3502 18.8 12.3441 18.8C12.338 18.8 12.3319 18.8 12.3259 18.8C12.3198 18.8 12.3137 18.8 12.3076 18.8C12.3015 18.8 12.2954 18.8 12.2894 18.8C12.2833 18.8 12.2772 18.8 12.2711 18.8C12.265 18.8 12.259 18.8 12.2529 18.8C12.2468 18.8 12.2407 18.8 12.2347 18.8C12.2286 18.8 12.2225 18.8 12.2164 18.8C12.2104 18.8 12.2043 18.8 12.1982 18.8C12.1921 18.8 12.1861 18.8 12.18 18.8C12.1739 18.8 12.1679 18.8 12.1618 18.8C12.1557 18.8 12.1496 18.8 12.1436 18.8C12.1375 18.8 12.1314 18.8 12.1254 18.8C12.1193 18.8 12.1132 18.8 12.1072 18.8C12.1011 18.8 12.095 18.8 12.089 18.8C12.0829 18.8 12.0768 18.8 12.0708 18.8C12.0647 18.8 12.0586 18.8 12.0526 18.8C12.0465 18.8 12.0404 18.8 12.0344 18.8C12.0283 18.8 12.0222 18.8 12.0162 18.8C12.0101 18.8 12.004 18.8 11.998 18.8C11.9919 18.8 11.9859 18.8 11.9798 18.8C11.9737 18.8 11.9677 18.8 11.9616 18.8C11.9555 18.8 11.9495 18.8 11.9434 18.8C11.9374 18.8 11.9313 18.8 11.9252 18.8C11.9192 18.8 11.9131 18.8 11.9071 18.8C11.901 18.8 11.8949 18.8 11.8889 18.8C11.8828 18.8 11.8768 18.8 11.8707 18.8C11.8647 18.8 11.8586 18.8 11.8525 18.8C11.8465 18.8 11.8404 18.8 11.8344 18.8C11.8283 18.8 11.8223 18.8 11.8162 18.8C11.8101 18.8 11.8041 18.8 11.798 18.8C11.792 18.8 11.7859 18.8 11.7799 18.8C11.7738 18.8 11.7677 18.8 11.7617 18.8C11.7556 18.8 11.7496 18.8 11.7435 18.8C11.7375 18.8 11.7314 18.8 11.7254 18.8C11.7193 18.8 11.7132 18.8 11.7072 18.8C11.7011 18.8 11.6951 18.8 11.689 18.8C11.683 18.8 11.6769 18.8 11.6709 18.8C11.6648 18.8 11.6588 18.8 11.6527 18.8C11.6466 18.8 11.6406 18.8 11.6345 18.8C11.6285 18.8 11.6224 18.8 11.6164 18.8C11.6103 18.8 11.6043 18.8 11.5982 18.8C11.5921 18.8 11.5861 18.8 11.58 18.8C11.574 18.8 11.5679 18.8 11.5619 18.8C11.5558 18.8 11.5498 18.8 11.5437 18.8C11.5377 18.8 11.5316 18.8 11.5255 18.8C11.5195 18.8 11.5134 18.8 11.5074 18.8C11.5013 18.8 11.4953 18.8 11.4892 18.8C11.4832 18.8 11.4771 18.8 11.471 18.8C11.465 18.8 11.4589 18.8 11.4529 18.8C11.4468 18.8 11.4408 18.8 11.4347 18.8C11.4286 18.8 11.4226 18.8 11.4165 18.8C11.4105 18.8 11.4044 18.8 11.3984 18.8C11.3923 18.8 11.3862 18.8 11.3802 18.8C11.3741 18.8 11.3681 18.8 11.362 18.8C11.356 18.8 11.3499 18.8 11.3438 18.8C11.3378 18.8 11.3317 18.8 11.3257 18.8C11.3196 18.8 11.3135 18.8 11.3075 18.8C11.3014 18.8 11.2954 18.8 11.2893 18.8C11.2832 18.8 11.2772 18.8 11.2711 18.8C11.2651 18.8 11.259 18.8 11.2529 18.8C11.2469 18.8 11.2408 18.8 11.2347 18.8C11.2287 18.8 11.2226 18.8 11.2166 18.8C11.2105 18.8 11.2044 18.8 11.1984 18.8C11.1923 18.8 11.1862 18.8 11.1802 18.8C11.1741 18.8 11.168 18.8 11.162 18.8C11.1559 18.8 11.1498 18.8 11.1438 18.8C11.1377 18.8 11.1316 18.8 11.1256 18.8C11.1195 18.8 11.1134 18.8 11.1074 18.8C11.1013 18.8 11.0952 18.8 11.0891 18.8C11.0831 18.8 11.077 18.8 11.0709 18.8C11.0649 18.8 11.0588 18.8 11.0527 18.8C11.0466 18.8 11.0406 18.8 11.0345 18.8C11.0284 18.8 11.0223 18.8 11.0163 18.8C11.0102 18.8 11.0041 18.8 10.998 18.8C10.992 18.8 10.9859 18.8 10.9798 18.8C10.9737 18.8 10.9677 18.8 10.9616 18.8C10.9555 18.8 10.9494 18.8 10.9433 18.8C10.9373 18.8 10.9312 18.8 10.9251 18.8C10.919 18.8 10.9129 18.8 10.9068 18.8C10.9008 18.8 10.8947 18.8 10.8886 18.8C10.8825 18.8 10.8764 18.8 10.8703 18.8C10.8643 18.8 10.8582 18.8 10.8521 18.8C10.846 18.8 10.8399 18.8 10.8338 18.8C10.8277 18.8 10.8216 18.8 10.8155 18.8C10.8094 18.8 10.8034 18.8 10.7973 18.8C10.7912 18.8 10.7851 18.8 10.779 18.8C10.7729 18.8 10.7668 18.8 10.7607 18.8C10.7546 18.8 10.7485 18.8 10.7424 18.8C10.7363 18.8 10.7302 18.8 10.7241 18.8C10.718 18.8 10.7119 18.8 10.7058 18.8C10.6997 18.8 10.6936 18.8 10.6875 18.8C10.6814 18.8 10.6753 18.8 10.6692 18.8C10.6631 18.8 10.657 18.8 10.6509 18.8C10.6448 18.8 10.6387 18.8 10.6325 18.8C10.6264 18.8 10.6203 18.8 10.6142 18.8C10.6081 18.8 10.602 18.8 10.5959 18.8C10.5898 18.8 10.5836 18.8 10.5775 18.8C10.5714 18.8 10.5653 18.8 10.5592 18.8C10.5531 18.8 10.5469 18.8 10.5408 18.8C10.5347 18.8 10.5286 18.8 10.5225 18.8C10.5163 18.8 10.5102 18.8 10.5041 18.8C10.498 18.8 10.4918 18.8 10.4857 18.8C10.4796 18.8 10.4735 18.8 10.4673 18.8C10.4612 18.8 10.4551 18.8 10.4489 18.8C10.4428 18.8 10.4367 18.8 10.4305 18.8C10.4244 18.8 10.4183 18.8 10.4121 18.8C10.406 18.8 10.3999 18.8 10.3937 18.8C10.3876 18.8 10.3814 18.8 10.3753 18.8C10.3692 18.8 10.363 18.8 10.3569 18.8C10.3507 18.8 10.3446 18.8 10.3384 18.8C10.3323 18.8 10.3261 18.8 10.32 18.8C10.3138 18.8 10.3077 18.8 10.3015 18.8C10.2954 18.8 10.2892 18.8 10.2831 18.8C10.2769 18.8 10.2708 18.8 10.2646 18.8C10.2585 18.8 10.2523 18.8 10.2461 18.8C10.24 18.8 10.2338 18.8 10.2277 18.8C10.2215 18.8 10.2153 18.8 10.2092 18.8C10.203 18.8 10.1968 18.8 10.1907 18.8C10.1845 18.8 10.1783 18.8 10.1722 18.8C10.166 18.8 10.1598 18.8 10.1536 18.8C10.1475 18.8 10.1413 18.8 10.1351 18.8C10.1289 18.8 10.1227 18.8 10.1166 18.8C10.1104 18.8 10.1042 18.8 10.098 18.8C10.0918 18.8 10.0857 18.8 10.0795 18.8C10.0733 18.8 10.0671 18.8 10.0609 18.8C10.0547 18.8 10.0485 18.8 10.0423 18.8C10.0361 18.8 10.0299 18.8 10.0237 18.8C10.0175 18.8 10.0113 18.8 10.0051 18.8C9.99895 18.8 9.99275 18.8 9.98655 18.8C9.98034 18.8 9.97414 18.8 9.96793 18.8C9.96173 18.8 9.95552 18.8 9.94931 18.8C9.9431 18.8 9.93689 18.8 9.93067 18.8C9.92446 18.8 9.91825 18.8 9.91203 18.8C9.90581 18.8 9.8996 18.8 9.89338 18.8C9.88716 18.8 9.88093 18.8 9.87471 18.8C9.86849 18.8 9.86226 18.8 9.85603 18.8C9.84981 18.8 9.84358 18.8 9.83735 18.8C9.83112 18.8 9.82488 18.8 9.81865 18.8C9.81242 18.8 9.80618 18.8 9.79994 18.8C9.7937 18.8 9.78746 18.8 9.78122 18.8C9.77498 18.8 9.76874 18.8 9.76249 18.8C9.75625 18.8 9.75 18.8 9.74375 18.8C9.7375 18.8 9.73125 18.8 9.725 18.8C9.71874 18.8 9.71249 18.8 9.70623 18.8C9.69997 18.8 9.69372 18.8 9.68746 18.8C9.68119 18.8 9.67493 18.8 9.66867 18.8C9.6624 18.8 9.65613 18.8 9.64987 18.8C9.6436 18.8 9.63733 18.8 9.63105 18.8C9.62478 18.8 9.61851 18.8 9.61223 18.8C9.60595 18.8 9.59967 18.8 9.59339 18.8C9.58711 18.8 9.58083 18.8 9.57454 18.8C9.56826 18.8 9.56197 18.8 9.55568 18.8C9.54939 18.8 9.5431 18.8 9.53681 18.8C9.53052 18.8 9.52422 18.8 9.51792 18.8C9.51163 18.8 9.50533 18.8 9.49902 18.8C9.49272 18.8 9.48642 18.8 9.48011 18.8C9.4738 18.8 9.4675 18.8 9.46119 18.8C9.45488 18.8 9.44856 18.8 9.44225 18.8C9.43593 18.8 9.42962 18.8 9.4233 18.8C9.41698 18.8 9.41066 18.8 9.40433 18.8C9.39801 18.8 9.39168 18.8 9.38535 18.8C9.37903 18.8 9.37269 18.8 9.36636 18.8C9.36003 18.8 9.35369 18.8 9.34736 18.8C9.34102 18.8 9.33468 18.8 9.32834 18.8C9.322 18.8 9.31565 18.8 9.3093 18.8C9.30296 18.8 9.29661 18.8 9.29026 18.8C9.28391 18.8 9.27755 18.8 9.2712 18.8C9.26484 18.8 9.25848 18.8 9.25212 18.8C9.24576 18.8 9.2394 18.8 9.23303 18.8C9.22667 18.8 9.2203 18.8 9.21393 18.8C9.20756 18.8 9.20118 18.8 9.19481 18.8C9.18843 18.8 9.18206 18.8 9.17568 18.8C9.1693 18.8 9.16291 18.8 9.15653 18.8C9.15014 18.8 9.14375 18.8 9.13736 18.8C9.13097 18.8 9.12458 18.8 9.11819 18.8C9.11179 18.8 9.10539 18.8 9.09899 18.8C9.09259 18.8 9.08619 18.8 9.07979 18.8C9.07338 18.8 9.06697 18.8 9.06056 18.8C9.05415 18.8 9.04774 18.8 9.04132 18.8C9.03491 18.8 9.02849 18.8 9.02207 18.8C9.01565 18.8 9.00922 18.8 9.0028 18.8C8.99637 18.8 8.98994 18.8 8.98351 18.8C8.97708 18.8 8.97065 18.8 8.96421 18.8C8.95777 18.8 8.95133 18.8 8.94489 18.8C8.93845 18.8 8.932 18.8 8.92556 18.8C8.91911 18.8 8.91266 18.8 8.90621 18.8C8.89975 18.8 8.8933 18.8 8.88684 18.8C8.88038 18.8 8.87392 18.8 8.86746 18.8C8.86099 18.8 8.85453 18.8 8.84806 18.8C8.84159 18.8 8.83512 18.8 8.82864 18.8C8.82217 18.8 8.81569 18.8 8.80921 18.8C8.80273 18.8 8.79624 18.8 8.78976 18.8C8.78327 18.8 8.77678 18.8 8.77029 18.8C8.7638 18.8 8.75731 18.8 8.75081 18.8C8.74431 18.8 8.73781 18.8 8.73131 18.8C8.7248 18.8 8.7183 18.8 8.71179 18.8C8.70528 18.8 8.69877 18.8 8.69225 18.8C8.68574 18.8 8.67922 18.8 8.6727 18.8C8.66618 18.8 8.65965 18.8 8.65313 18.8C8.6466 18.8 8.64007 18.8 8.63354 18.8C8.627 18.8 8.62047 18.8 8.61393 18.8C8.60739 18.8 8.60085 18.8 8.5943 18.8C8.58776 18.8 8.58121 18.8 8.57466 18.8C8.56811 18.8 8.56156 18.8 8.555 18.8C8.54844 18.8 8.54188 18.8 8.53532 18.8C8.52876 18.8 8.52219 18.8 8.51562 18.8C8.50905 18.8 8.50248 18.8 8.4959 18.8C8.48933 18.8 8.48275 18.8 8.47617 18.8C8.46959 18.8 8.463 18.8 8.45641 18.8C8.44983 18.8 8.44324 18.8 8.43664 18.8C8.43005 18.8 8.42345 18.8 8.41685 18.8C8.41025 18.8 8.40364 18.8 8.39704 18.8C8.39043 18.8 8.38382 18.8 8.37721 18.8C8.37059 18.8 8.36398 18.8 8.35736 18.8C8.35074 18.8 8.34411 18.8 8.33749 18.8C8.33086 18.8 8.32423 18.8 8.3176 18.8C8.31097 18.8 8.30433 18.8 8.29769 18.8C8.29105 18.8 8.28441 18.8 8.27776 18.8C8.27111 18.8 8.26447 18.8 8.25781 18.8C8.25116 18.8 8.2445 18.8 8.23784 18.8C8.23118 18.8 8.22452 18.8 8.21786 18.8C8.21119 18.8 8.20452 18.8 8.19785 18.8C8.19117 18.8 8.1845 18.8 8.17782 18.8C8.17114 18.8 8.16445 18.8 8.15777 18.8C8.15108 18.8 8.14439 18.8 8.1377 18.8C8.131 18.8 8.12431 18.8 8.11761 18.8C8.11091 18.8 8.1042 18.8 8.09749 18.8C8.09079 18.8 8.08408 18.8 8.07736 18.8C8.07065 18.8 8.06393 18.8 8.05721 18.8C8.05049 18.8 8.04376 18.8 8.03703 18.8C8.0303 18.8 8.02357 18.8 8.01684 18.8C8.0101 18.8 8.00336 18.8 7.99662 18.8C7.98988 18.8 7.98313 18.8 7.97638 18.8C7.96963 18.8 7.96288 18.8 7.95612 18.8C7.94936 18.8 7.9426 18.8 7.93584 18.8C7.92907 18.8 7.9223 18.8 7.91553 18.8C7.90876 18.8 7.90199 18.8 7.89521 18.8C7.88843 18.8 7.88164 18.8 7.87486 18.8C7.86807 18.8 7.86128 18.8 7.85449 18.8C7.84769 18.8 7.8409 18.8 7.8341 18.8C7.82729 18.8 7.82049 18.8 7.81368 18.8C7.80687 18.8 7.80006 18.8 7.79324 18.8C7.78643 18.8 7.77961 18.8 7.77278 18.8C7.76596 18.8 7.75913 18.8 7.7523 18.8C7.74547 18.8 7.73863 18.8 7.73179 18.8C7.72496 18.8 7.71811 18.8 7.71127 18.8C7.70442 18.8 7.69757 18.8 7.69071 18.8C7.68386 18.8 7.677 18.8 7.67014 18.8C7.66328 18.8 7.65641 18.8 7.64954 18.8C7.64267 18.8 7.6358 18.8 7.62892 18.8C7.62204 18.8 7.61516 18.8 7.60828 18.8C7.60139 18.8 7.5945 18.8 7.58761 18.8C7.58071 18.8 7.57382 18.8 7.56692 18.8C7.56001 18.8 7.55311 18.8 7.5462 18.8C7.53929 18.8 7.53238 18.8 7.52546 18.8C7.51854 18.8 7.51162 18.8 7.5047 18.8C7.49777 18.8 7.49084 18.8 7.48391 18.8C7.47697 18.8 7.47004 18.8 7.4631 18.8C7.45615 18.8 7.44921 18.8 7.44226 18.8C7.43531 18.8 7.42836 18.8 7.4214 18.8C7.41444 18.8 7.40748 18.8 7.40051 18.8C7.39355 18.8 7.38658 18.8 7.3796 18.8C7.37263 18.8 7.36565 18.8 7.35867 18.8C7.35168 18.8 7.3447 18.8 7.33771 18.8C7.33071 18.8 7.32372 18.8 7.31672 18.8C7.30972 18.8 7.30272 18.8 7.29571 18.8C7.2887 18.8 7.28169 18.8 7.27467 18.8C7.26766 18.8 7.26064 18.8 7.25361 18.8C7.24659 18.8 7.23956 18.8 7.23253 18.8C7.22549 18.8 7.21845 18.8 7.21141 18.8C7.20437 18.8 7.19733 18.8 7.19028 18.8C7.18322 18.8 7.17617 18.8 7.16911 18.8C7.16205 18.8 7.15499 18.8 7.14792 18.8C7.14085 18.8 7.13378 18.8 7.12671 18.8C7.11963 18.8 7.11255 18.8 7.10546 18.8C7.09838 18.8 7.09129 18.8 7.08419 18.8C7.0771 18.8 7.07 18.8 7.0629 18.8C7.0558 18.8 7.04869 18.8 7.04158 18.8C7.03447 18.8 7.02735 18.8 7.02023 18.8C7.01311 18.8 7.00599 18.8 6.99886 18.8C6.99173 18.8 6.98459 18.8 6.97745 18.8C6.97032 18.8 6.96317 18.8 6.95603 18.8C6.94888 18.8 6.94173 18.8 6.93457 18.8C6.92741 18.8 6.92025 18.8 6.91309 18.8C6.90592 18.8 6.89875 18.8 6.89158 18.8C6.8844 18.8 6.87722 18.8 6.87004 18.8C6.86286 18.8 6.85567 18.8 6.84848 18.8C6.84128 18.8 6.83408 18.8 6.82688 18.8C6.81968 18.8 6.81247 18.8 6.80526 18.8C6.79805 18.8 6.79083 18.8 6.78361 18.8C6.77639 18.8 6.76917 18.8 6.76194 18.8C6.75471 18.8 6.74747 18.8 6.74023 18.8C6.73299 18.8 6.72575 18.8 6.7185 18.8C6.71125 18.8 6.704 18.8 6.69674 18.8C6.68948 18.8 6.68222 18.8 6.67495 18.8C6.66768 18.8 6.66041 18.8 6.65313 18.8C6.64586 18.8 6.63857 18.8 6.63129 18.8C6.624 18.8 6.61671 18.8 6.60941 18.8C6.60212 18.8 6.59482 18.8 6.58751 18.8C6.5802 18.8 6.57289 18.8 6.56558 18.8C6.55826 18.8 6.55094 18.8 6.54361 18.8C6.53629 18.8 6.52896 18.8 6.52162 18.8C6.51429 18.8 6.50695 18.8 6.4996 18.8C6.49226 18.8 6.48491 18.8 6.47755 18.8C6.4702 18.8 6.46284 18.8 6.45547 18.8C6.44811 18.8 6.44074 18.8 6.43336 18.8C6.42599 18.8 6.41861 18.8 6.41123 18.8C6.40384 18.8 6.39645 18.8 6.38906 18.8C6.38166 18.8 6.37426 18.8 6.36686 18.8C6.35945 18.8 6.35205 18.8 6.34463 18.8C6.33722 18.8 6.3298 18.8 6.32237 18.8C6.31495 18.8 6.30752 18.8 6.30008 18.8C6.29265 18.8 6.28521 18.8 6.27776 18.8C6.27032 18.8 6.26287 18.8 6.25541 18.8C6.24796 18.8 6.2405 18.8 6.23303 18.8C6.22557 18.8 6.2181 18.8 6.21062 18.8C6.20315 18.8 6.19566 18.8 6.18818 18.8C6.18069 18.8 6.1732 18.8 6.16571 18.8C6.15821 18.8 6.15071 18.8 6.1432 18.8C6.13569 18.8 6.12818 18.8 6.12067 18.8C6.11315 18.8 6.10563 18.8 6.0981 18.8C6.09057 18.8 6.08304 18.8 6.0755 18.8C6.06796 18.8 6.06042 18.8 6.05287 18.8C6.04532 18.8 6.03777 18.8 6.03021 18.8C6.02265 18.8 6.01508 18.8 6.00751 18.8C5.99995 18.8 5.99237 18.8 5.98479 18.8C5.97721 18.8 5.96962 18.8 5.96203 18.8C5.95444 18.8 5.94685 18.8 5.93924 18.8C5.93164 18.8 5.92403 18.8 5.91642 18.8C5.90881 18.8 5.90119 18.8 5.89357 18.8C5.88594 18.8 5.87832 18.8 5.87068 18.8C5.86305 18.8 5.85541 18.8 5.84776 18.8C5.84012 18.8 5.83247 18.8 5.82481 18.8C5.81716 18.8 5.80949 18.8 5.80183 18.8C5.79416 18.8 5.78649 18.8 5.77881 18.8C5.77113 18.8 5.76345 18.8 5.75576 18.8C5.74807 18.8 5.74038 18.8 5.73268 18.8C5.72498 18.8 5.71727 18.8 5.70956 18.8C5.70185 18.8 5.69413 18.8 5.68641 18.8C5.67869 18.8 5.67096 18.8 5.66323 18.8C5.65549 18.8 5.64776 18.8 5.64001 18.8C5.63227 18.8 5.62452 18.8 5.61676 18.8C5.609 18.8 5.60124 18.8 5.59348 18.8C5.58571 18.8 5.57794 18.8 5.57016 18.8C5.56238 18.8 5.5546 18.8 5.54681 18.8C5.53902 18.8 5.53122 18.8 5.52342 18.8C5.51562 18.8 5.50781 18.8 5.5 18.8V20.2ZM15.5 20.2C17.5821 20.2 18.7805 18.9846 19.4226 17.8432C19.7402 17.2785 19.9311 16.7206 20.0428 16.308C20.0991 16.1003 20.1363 15.9259 20.1597 15.8009C20.1714 15.7383 20.1798 15.6879 20.1854 15.6516C20.1882 15.6334 20.1903 15.6188 20.1918 15.6079C20.1925 15.6025 20.1931 15.598 20.1936 15.5945C20.1938 15.5927 20.194 15.5912 20.1942 15.5899C20.1943 15.5893 20.1944 15.5887 20.1944 15.5882C20.1945 15.5879 20.1945 15.5876 20.1945 15.5875C20.1946 15.5871 20.1946 15.5868 19.5 15.5C18.8054 15.4132 18.8054 15.4129 18.8055 15.4126C18.8055 15.4126 18.8055 15.4123 18.8055 15.4122C18.8056 15.4119 18.8056 15.4117 18.8056 15.4115C18.8057 15.4112 18.8057 15.4112 18.8056 15.4113C18.8056 15.4117 18.8054 15.4129 18.8051 15.415C18.8045 15.4193 18.8034 15.4271 18.8017 15.4383C18.7983 15.4606 18.7924 15.4961 18.7837 15.5429C18.7661 15.6366 18.7368 15.7747 18.6915 15.942C18.6001 16.2794 18.4473 16.7215 18.2024 17.1568C17.7195 18.0154 16.9179 18.8 15.5 18.8V20.2ZM19.5 14.8H1.5V16.2H19.5V14.8Z" fill="#FFFDF5"/>
<path d="M1.49986 8L0.815394 8.14667C0.884554 8.46942 1.16978 8.7 1.49986 8.7V8ZM19.4999 8V8.7C19.8299 8.7 20.1152 8.46942 20.1843 8.14667L19.4999 8ZM1.49986 8.7H19.4999V7.3H1.49986V8.7ZM19.4999 8C20.1843 8.14667 20.1844 8.14616 20.1845 8.14563C20.1846 8.14542 20.1847 8.14485 20.1848 8.14442C20.185 8.14357 20.1852 8.1426 20.1854 8.14152C20.1859 8.13937 20.1864 8.13679 20.187 8.13378C20.1882 8.12776 20.1897 8.12003 20.1915 8.11064C20.1951 8.09188 20.1997 8.06647 20.2049 8.03487C20.2153 7.97169 20.2281 7.88349 20.2398 7.77379C20.2633 7.55481 20.2828 7.24771 20.2697 6.88127C20.2437 6.15123 20.0872 5.16402 19.5544 4.16944C18.4554 2.11808 15.9116 0.3 10.4999 0.3V1.7C15.5881 1.7 17.5443 3.38192 18.3203 4.83056C18.725 5.58598 18.8498 6.34877 18.8706 6.93123C18.881 7.22104 18.8653 7.46082 18.8478 7.62465C18.839 7.70636 18.8299 7.76855 18.8234 7.80791C18.8202 7.82757 18.8176 7.84147 18.8162 7.8492C18.8154 7.85306 18.815 7.85537 18.8148 7.85607C18.8147 7.85643 18.8148 7.85638 18.8148 7.85593C18.8149 7.8557 18.815 7.85537 18.8151 7.85494C18.8151 7.85472 18.8152 7.85432 18.8152 7.85421C18.8153 7.85378 18.8154 7.85333 19.4999 8ZM10.4999 0.3C5.08811 0.3 2.54426 2.11808 1.44532 4.16945C0.912512 5.16402 0.756061 6.15123 0.729989 6.88127C0.716902 7.24771 0.736431 7.55481 0.759894 7.77379C0.771647 7.88349 0.784453 7.97169 0.794833 8.03487C0.800025 8.06647 0.80462 8.09188 0.808187 8.11064C0.809971 8.12003 0.811499 8.12776 0.812718 8.13378C0.813327 8.13679 0.813859 8.13937 0.814307 8.14152C0.814531 8.1426 0.814735 8.14357 0.814916 8.14442C0.815006 8.14485 0.815126 8.14542 0.815171 8.14563C0.815285 8.14616 0.815394 8.14667 1.49986 8C2.18432 7.85333 2.18441 7.85378 2.18451 7.85421C2.18453 7.85432 2.18461 7.85472 2.18466 7.85494C2.18475 7.85537 2.18482 7.8557 2.18487 7.85593C2.18496 7.85638 2.18497 7.85643 2.1849 7.85607C2.18476 7.85537 2.18429 7.85306 2.18356 7.8492C2.18209 7.84147 2.17954 7.82757 2.17631 7.80791C2.16985 7.76855 2.16068 7.70636 2.15193 7.62465C2.13437 7.46082 2.11875 7.22104 2.1291 6.93123C2.1499 6.34877 2.2747 5.58598 2.67939 4.83055C3.45545 3.38192 5.4116 1.7 10.4999 1.7V0.3Z" fill="#FFFDF5"/>
<path d="M1.5 11.9995C2.40563 11.5858 3.00492 11.4659 4 11.4995C5.23425 11.5411 5.76622 12.4458 7 12.4995C8.42019 12.5612 9.07847 11.4995 10.5 11.4995C11.9215 11.4995 12.5798 12.5612 14 12.4995C15.2338 12.4458 15.7658 11.5411 17 11.4995C17.9951 11.4659 18.5944 11.5858 19.5 11.9995" stroke="#FFFDF5" stroke-width="1.4" stroke-linecap="round"/>
</svg>
