<svg fill="#000" height="33" viewBox="0 0 33 33" width="33" xmlns="http://www.w3.org/2000/svg"><path clip-rule="evenodd" d="m32.2615 16.9019c0 8.8365-7.1635 16-16 16-8.83657 0-16.000025-7.1635-16.000025-16 0-8.8366 7.163455-16.000045 16.000025-16.000045 8.8365 0 16 7.163445 16 16.000045zm-11.9301-8.19916c-1.0619-.04977-1.3796-.05925-4.0699-.05925-2.688 0-3.008.01185-4.07.05925-.9813.04504-1.5146.2086-1.8702.34608-.47168.18252-.8059.40059-1.15909.75378-.35318.3532-.57126.6898-.75377 1.1591-.13748.3556-.30105.8889-.34608 1.8702-.04978 1.062-.05926 1.382-.05926 4.07s.01185 3.008.05926 4.0699c.04503.9813.2086 1.5146.34608 1.8702.18251.4717.40059.8059.75377 1.1591.35319.3532.68978.5713 1.15909.7538.3556.1375.8889.301 1.8702.3461 1.062.0497 1.3796.0592 4.07.0592 2.6903 0 3.008-.0118 4.0699-.0592.9813-.0451 1.5147-.2086 1.8702-.3461.4717-.1825.806-.4006 1.1591-.7538.3532-.3532.5713-.6898.7538-1.1591.1375-.3556.301-.8889.3461-1.8702.0498-1.0619.0592-1.3819.0592-4.0699s-.0118-3.008-.0592-4.07c-.0451-.9813-.2086-1.5146-.3461-1.8702-.1825-.4717-.4006-.8059-.7538-1.1591-.3531-.35319-.6897-.57126-1.1591-.75378-.3555-.13748-.8889-.30104-1.8702-.34608zm-8.2228-1.81333c1.0738-.04978 1.4175-.06163 4.1529-.06163s3.0791.01185 4.1529.06163c1.0737.04978 1.8062.22045 2.4462.46933.6637.256 1.2255.60208 1.7849 1.16149.5594.56177.9031 1.12355 1.1614 1.78487.2513.6424.4196 1.3748.4694 2.4462.0498 1.0738.0616 1.4175.0616 4.1529s-.0118 3.0791-.0616 4.1529-.2205 1.8062-.4694 2.4462c-.256.6637-.602 1.2255-1.1614 1.7849-.5618.5594-1.1236.9031-1.7849 1.1615-.6424.2513-1.3748.4196-2.4462.4693-1.0738.0498-1.4175.0617-4.1529.0617s-3.0791-.0119-4.1529-.0617c-1.0738-.0497-1.8062-.2204-2.44624-.4693-.66371-.256-1.22548-.6021-1.78489-1.1615-.55941-.5618-.90311-1.1235-1.16148-1.7849-.25126-.6423-.41956-1.3748-.46934-2.4462-.04977-1.0738-.06162-1.4175-.06162-4.1529s.01185-3.0791.06162-4.1529c.04978-1.0737.22045-1.8062.46934-2.4462.256-.66369.60207-1.22547 1.16148-1.78487.56178-.55941 1.12355-.90312 1.78489-1.16149.64234-.25126 1.37484-.41955 2.44624-.46933zm4.1528 4.84049c-2.8563 0-5.1721 2.3158-5.1721 5.1721s2.3158 5.1722 5.1721 5.1722 5.1722-2.3159 5.1722-5.1722-2.3159-5.1721-5.1722-5.1721zm0 8.531c-1.8536 0-3.3588-1.5029-3.3588-3.3589s1.5028-3.3588 3.3588-3.3588 3.3588 1.5028 3.3588 3.3588-1.5028 3.3589-3.3588 3.3589zm6.5873-8.7373c0 .6677-.5412 1.2089-1.2089 1.2089-.6676 0-1.2089-.5412-1.2089-1.2089 0-.6676.5413-1.2089 1.2089-1.2089.6677 0 1.2089.5413 1.2089 1.2089z" fill="#fffdf5" fill-rule="evenodd"/></svg>