<svg fill="none" height="33" viewBox="0 0 33 33" width="33" xmlns="http://www.w3.org/2000/svg"><path clip-rule="evenodd" d="m32.4215 16.9019c0 8.8365-7.1634 16-16 16-8.83655 0-15.999991-7.1635-15.999991-16 0-8.8366 7.163441-16.000045 15.999991-16.000045 8.8366 0 16 7.163445 16 16.000045zm-14.4999-2.4926c.1577-.19.3105-.3741.4863-.5391.8296-.7822 1.8109-1.1757 2.9582-1.1662.6305.0047 1.2516.0497 1.8584.2251 1.389.4006 2.1949 1.3583 2.5813 2.7141.2892 1.0169.3413 2.0622.3437 3.1099.0022 1.0309.0008 2.0623-.0006 3.0938-.0016 1.1789-.0032 2.3579.0006 3.5362 0 .2062-.0569.2607-.2607.2607-1.1378-.0095-2.278-.0095-3.4157 0-.2015 0-.2442-.0592-.2442-.2489.0071-2.1025.0071-4.205 0-6.3099 0-.5262-.0356-1.0548-.1825-1.5668-.2726-.9434-.9482-1.4246-1.9366-1.3725-1.3511.0712-2.0527.7396-2.2234 2.112-.0403.3272-.0616.6566-.0593.9861 0 2.0456 0 4.0913.0048 6.1369 0 .2039-.0498.2631-.2584.2631-1.1473-.0095-2.2945-.0095-3.4418 0-.1849 0-.237-.0474-.237-.2346.0047-4.0486.0047-8.0996 0-12.1482 0-.2015.0664-.2465.256-.2465 1.088.0071 2.1784.0095 3.2664 0 .2014 0 .2512.064.2488.2536-.0086.3516-.0072.7032-.0058 1.0557l.0001.0025c.0005.1298.001.2597.001.3898.091-.1026.1765-.2056.2604-.3068zm-6.5016 4.9365-.0002 1.2048c-.0003 1.6011-.0007 3.203.005 4.804 0 .2229-.0546.2892-.2845.2869-1.1378-.0119-2.27554-.0095-3.41569 0-.18252 0-.23704-.0451-.23704-.2323.00475-4.0557.00475-8.1114 0-12.1695 0-.1683.0403-.2276.21807-.2276 1.15437.0071 2.30876.0095 3.46316 0 .2228 0 .2512.083.2512.275-.0035 1.5146-.0031 3.0291-.0026 4.5437l.0003 1.515zm-1.96262-8.0689c1.25632 0 2.27552-1.024 2.27552-2.28264v-.00237c-.0023-1.2397-1.0263-2.26133-2.27078-2.26133-1.25392 0-2.28266 1.03111-2.27792 2.28267.00474 1.23967 1.03347 2.26367 2.27318 2.26367z" fill="#fffdf5" fill-rule="evenodd"/></svg>