<svg xmlns="http://www.w3.org/2000/svg" width="277" height="122" fill="none"><clipPath id="a"><path d="M0 .22h276.18v121.22H0z"/></clipPath><g fill="#fffdf5" clip-path="url(#a)"><path d="M148.62 30.95c-.9-.13-1.53-.54-2.23-.87-1.32-.06-2.46-.89-3.47.25h-.74c.42 2.37-1.34 3.57-.74 5.33-.48.55-.5 6.24-.87 6.91-.09.46.21.53.12.99-.32.88-1.02 1.38-1.36 2.23-.19.58.1.41.12.99-1.97.75-6.01 1.09-8.09 1.74.08-2.09.65-6.19.37-7.9-.18-1.11-.9-1.45-1.36-2.23-.55-.93-.99-1.79-1.49-2.48-1.93-1.39-3.18-2.42-6.29-2.23-1.46-.82-3.48-.12-4.83.5-.16.63-.64 1.12-.62 1.74.12 3.29.04 8.9 0 12.12 0 .78.31 1.48.37 2.23.23 2.94-.68 9.33-.25 12.17.38.79.98 1.92.5 2.85.91 1.52 1.04 3.83 2.6 4.71.25-.45.77-.63 1.24-.87.29-2.1.87-3.93 2.73-4.46.6-1.68 1.46-3.09 2.73-4.09.04.38.99.25.99.25s-.12-.57.12-.87c1.38-.19 1.46-5.17 2.23-5.97 1.54 0 2.56-.47 4.22-.62 1.21-.46 2.31-1.63 3.72-1.49.26 1.05-.2 1.99-.62 2.73.86.48-.08 1.38-.37 2.11.28.34.29.94.5 1.36-1.24 2.64.03 7.18.12 10.41.97.44.76-1.16 1.98-.87 1.09-1.59 1.98-2.71 3.1-4.96.24-.47.61-.88 1.24-.99.43-2.01.71-3.24 1.61-5.7.25-.69.88-1.18.99-2.11.13-.46-.26-.4-.37-.62 2.24-4.44 4.59-17.18 2.11-22.29zM162.38 59.81c.23-.1.45-.21.74-.25 1.35-2.95 2.88-5.71 3.97-8.93-.05-.24-.35-.22-.25-.62.29-.7.88-1.5 1.24-1.98.16-.22.18-.73.37-1.12.19-.38.68-.73.74-.87.36-.8.2-1.81 1.12-2.23.16 0 .17.16.37.12.12-2.46 2.03-4.46 3.6-6.2.15-.14.44-.14.74-.12 2.2-5.97-5.38-6.15-8.68-7.81-.48.1-1.54.27-1.86.12 0-.08-.02-.15-.12-.12-1.96 1.35-3.07 2.96-5.58 2.11-.5 1.5-.15 2.84.87 3.84-.55 1.95-2.28 4.06-1.98 5.7-.11.18-.18.39-.5.37.35.75-.1 1.48-.87 1.49-.21.86-.67 1.48-.99 2.23.19.35.58-.26.74.12-.42.44-.59 1.15-1.12 1.49.1.44.64-.32.74.12-.21.75-1.19 1.64-.37 2.11.24-.43.1-1.23.99-.99.06-.39-.18-.48-.25-.74.64-.19.62-.48.87-.87.1 2.36-1.34 4.91-2.6 6.7.83 2.6-1.76 4.06-1.36 6.45-.59.61-.5 1.89-.87 2.73-.78-.07-1.25.67-1.49 1.49.22.15.36.38.62.5-1.05.65.45 2.44-.74 2.98.13.42.56 1.47-.12 1.61 1.08 1.7-.07 4.17.37 5.95.25.79.45 1.62.99 2.11-.1.47.15.59.12.99.68-.1.53.63.99.74 1.06-.39 1.42-1.47 2.11-2.23-.06-3.62 2.28-4.82 2.48-8.18.7-.46 1.01-1.3 1.74-1.74.05 1.58-1.89 3.65-1.12 5.21 1.02-2.44 1.61-5.13 2.6-7.32-.14-2.37 1.75-2.72 1.74-4.96zm-5.83-5.58c.25-.58.33-1.32 1.12-1.36-.24.54-.49 1.62-1.12 1.36z"/><path d="M154.94 50.88h.62v-.5c-.29.08-.58.17-.62.5zM154.82 51.26c-.57-.44-.95.78-.74 1.12.44-.18.74-.5.74-1.12zM153.45 54.11c.14.49.14-.49 0 0zM152.58 56.59c.21.96-.7.79-.62 1.61.83.22 1.17-1.27.62-1.61zM151.84 60.31h-.37v.99c.41-.05.3-.61.37-.99zM189.5 71.34c.1-.03.24 0 .25-.12-.1.03-.24 0-.25.12zM198.43 59.69c.11-.1.28-.13.5-.12.04-.22-.69-.22-.5.12z"/><path d="M217.27 56.71c.07-1.35-1.01-1.55-.87-2.98-1.65-.3-2.02-1.47-3.35-1.86-1.16.93-1.96 1.83-3.6 2.11-.14-.19-.36-.31-.5-.5-1.98.58-3.17-1.32-5.21-.99-.4-.06-.44-.47-.87-.5-.87.08-1.21-.36-2.11-.25-1.29-.65-3.65-.23-4.59-1.24 1.34-.23 2.1-1.04 3.1-1.61 1.02.4 1.6-.72 2.73-.62.5-.53 1.22-.85 2.23-.87 1.35-.59 2.02-1.87 3.84-1.98.81-.55 1.46-1.27 2.23-1.86.78-2.98.37-5.77-.74-8.06-.38-.19-.48.04-.74-.12.25-1.74-1.51-1.47-1.86-2.6-1.47.85-3.29 1.34-5.21 1.74.06.39-.15.51-.37.62-5.12 1.95-10.55 3.58-14.88 6.32-1.34.36-2.04 1.35-3.6 1.49-1.7 1.44-3.58 2.7-5.58 3.84-.46.09-.53-.21-.99-.12-.2.55-.78.71-.62 1.61-.88-.01-.44 1.3-1.24 1.36.32 1.46 1.05 2.5 1.86 3.47-.04 2.56 2.3 2.74 3.22 4.34 1.56 1.05 3.2 2.01 4.96 2.85h.74c1.64 1.21 4.77.94 7.44 1.12 1.34-.96 3.68-1.5 5.45-1.61 0-.12.15-.1.25-.12-.2-.34.54-.34.5-.12-.22 0-.39.03-.5.12-.21.9-1.89.34-2.23 1.12 0 .41.5.33.62.62-.91.81-2.52.13-3.72.62.08.7-.44.8-.87.99-1.34-.17-3.11-.71-3.72.37-.47-.02-.98-.07-.99.37.85.08 1.47-.55 2.35-.25-.18.19-.63.11-.99.12-1.93.96-4.34 1.45-6.2 2.48-1.34.4-3.07.4-3.97 1.24.7.1 1.17-.2 1.61 0 0 .25-.34.16-.25.5 1.23.32 1.81-.66 2.6-.37-1.98 1.12-4.96 1.24-6.82 2.48-.93.25-1.28.34-2.48.25-.04.7-1.19.84-1.61.74-.02.37-.51-.12 0 0-.08-.5.52-.3.5-.74-1.48.48-3.12-.15-4.71.74.12-.42.38-.69.74-.87.53.35 1.41.01 1.24-.74-1.16-.04-2.73 1.34-4.09.74-1.65.79-3.59 1.29-5.21 2.11-.29 1.13.38 1.35.5 2.36.37.08.43.48.99.37-.06 1.3 1.66.82 2.36 1.36-.04.47-.94.55-.62.99 1.24.16 2.17-.38 3.1-.37.19-.52-.69.03-.49-.5.77.06 1.65.34 2.6.5-.01-.18-.02-.35.12-.37.3-.05.27.23.62.12 1.93-1.71 5.2-1.95 8.06-2.98.18.19.63.11.99.12 1.32-.6 3.15-1.29 4.71-1.24 1.31-.43 2.71-1.42 3.97-1.49-.18.44-.73.51-.87.99.8.01 1.05-.53 1.61-.75.4.49-.17.84-.5.99-1.02-.1-2.41.47-3.47.75-.68-.21-1.2.15-1.86-.12-.47.75-1.73.06-2.11.99.57.33 2.29-.73 2.6.12.39-.03.51-.32.74-.5 1.56.25 3.04-.57 4.22-1.12 1.8.06 3.8-.74 5.08-1.61.74.43 1.62-.46 2.23-.12v.37c-2.71.48-4.39 1.97-6.82 2.73 1.2-.21 2.22-.28 3.35-.37 2.76-.22 5.01-2.07 7.93-1.86.17-.12.24-.33.5-.37.33.85 1.22-.35 1.61.37-.63.4-1.33.74-2.48.62-.27.51.21.81.74.87.43-.02.47-.44.87-.5 3.22.09 6.98-.92 10.17-1.24.99-.66 2.15-1.15 3.35-1.61 1.07-.87 1.38-2.5 2.36-3.47.35-2.44 1.87-3.87 1.74-6.7-.22-.56-.59-.98-.5-1.86h.05l-.28-1.34c-.03.13-.08.25-.15.36zm-54.93 17.23c.05-.15.16-.25.37-.25-.05.15-.16.25-.37.25zm2.73-2.23c.29-.7 1.47-.51 1.73-1.24.22-.02.26.15.5.12-.32.79-1.16 1.07-2.23 1.12zm3.35-.37c.2-.03.21.12.37.12.05.24-.57.18-.37-.12zm.25 4.71c.07-.63.82-.59 1.49-.62-.33.37-.89.52-1.49.62zm.87-4.59c.21-.38.92-.24 1.24-.5.28.37-.66.57-1.24.5zm4.22-.87c.18-.41.31.48 0 0zm8.8-3.84c-.33.12-.56.35-.99.37 0-.46.55-.36.99-.37.2-.3.53-.46.99-.5-.2.3-.53.46-.99.5zm2.11.12c-.26.05-.33-.08-.5-.12.02-.36.59-.3.5.12zm3.1-.87h-.5c.04-.16.22-.2.25-.37.1.02.12.12.25.12zm1.74 5.33c0-.12.15-.1.25-.12 0 .12-.15.1-.25.12zm1.61-8.18c.02-.15.23-.1.37-.12-.02.15-.23.11-.37.12z"/><path d="M176.36 68.24c.99-.08 2.03-.12 2.36-.87-.87.21-2 .14-2.36.87zM174.75 68.99v.25h.25v-.25zM171.65 69.61c.02.48.48.51.99.5.07-.18.18-.31.25-.5-.64.08-.76.32-1.24 0zM185.78 73.7c.14.1.33.16.62.12.19-.37-.64-.33-.62-.12zM185.53 73.82c.18-.08-.01-.15 0 0zM179.46 74.07h.37v-.25h-.37zM184.92 73.95c.08.1.74.32.62-.12-.18.07-.64-.14-.62.12zM176.61 74.44c-.82 1.13-2.5.8-3.47 1.61h-.74c-.5.74-1.92.56-2.48 1.24.64-.18 1.54-.11 2.36-.12 2.24-1.07 5.23-1.39 7.32-2.6-1.04-.2-1.51-.25-2.98-.12zM177.97 77.04c-.16 0-.17-.16-.37-.12-.19.31.42.37.37.12zM28.27 79.31c.2-.34-.54-.34-.5-.12.17.04.24.18.5.12zM24.8 82.91c.18-.07.64.14.62-.12-.16-.17-.61-.19-.62.12zM4.09 74.6c-.06.59.64.28.87.12-.43.1-.48-.18-.87-.12zM47.49 83.78c-.52-.12-.03.37 0 0zM22.44 75.72c.06-.66-.31-.42-.74-.37-.01.38.37.37.74.37zM45.5 84.15c.51.02.96-.04 1.24-.25-.48.02-1.09-.1-1.24.25zM31.62 82.78c-.22.03-.62-.12-.5.25.28.03.47-.03.5-.25zM5.21 74.85c.32-.05.68-.06.87-.25-.28-.26-.82-.09-.87.25zM25.17 76.21c-.08-.18-.15.01 0 0zM47.49 83.78c.32-.13.59.38.74 0-.09-.1-.69-.28-.74 0zM70.55 80.06c.31.48.18-.41 0 0zM112.95 60.1c-.07-1.12 1.07-1.76-.12-2.36.5-1.67-.89-2.75-.87-4.22 0-.62.45-1.09.37-1.61-.09-.59-.72-.96-.99-1.49-.43-.84-.38-2.01-1.24-2.36 0 .46-.06.85-.5.87-.06-1.4-2.63-.94-3.1-.25-.64-.22-1.12-.19-1.61-.74-2.47.21-4.43-1.32-6.7-1.36-.42-.84-1.85.11-1.98-.99-.56.22-.89.68-1.24 1.12-.52.02-.69-.23-1.12 0 .19-.18.11-.63.12-.99-.59-.25-1.52-.13-1.98.12-1.34-1.14-4.94-.02-6.45-.99.64-.13 1.09-.13 1.74 0 1.26-.52 3.19-.36 4.22-1.12 4.91-.85 8.53-3.03 13.89-2.48.3.11.54.29.99.25.24-.05.31-.27.62-.25.8-1.2-.25-1.84-.74-2.73.53-.66.03-2 .25-2.73-1.82-3.76-4.38-6.78-6.57-10.17-.79-.53-1.76-.88-1.98-1.98-1.08-.61-1.99-1.4-2.85-2.23-1.14-.11-1.98.17-3.1.37-.03.5-.54.54-.74.87-5.27 2.05-11 3.63-16.24 5.7-.49.09-3.66 1.47-3.84 1.61-6.12 1.9-11.06 4.97-16.99 7.07-1.28 0-1.94.62-2.73 1.12-.83-.09-1.08.4-1.61.62-.06-.31 0-.75-.37-.74-.17 0-.27-.06-.37-.12-2.49 3.04.39 7.23 1.74 9.8.91.58 1.71 1.27 2.11 2.36.31-.02.6-.02.74.12.09.28.11.63.25.87.16.17.59.08.74.25 1.41 1.48 2.19 3.6 4.84 3.84.5.41 1.51.31 2.11.62.47-.31 1.02-.55 1.86-.5-.1.35.17.32.12.62-.08.17-.27.23-.5.25.22.53.56.93 1.24.99.33-.09.12-.71.5-.74 3.21.03 8.22-.3 11.53-.25.43-.15.41-.74 1.12-.62.55-.1.16.75.87.5.4-.39-.37-.05-.25-.5 1.69-.58 3.98-.59 6.32-.12-.38.7-1.97.18-2.6.62-.53-.12-2.26-.72-2.36.25 2.22-.23 3.89 1.11 6.08.74.02-.19-.04-.46.12-.5 1.32-.32 1.82.4 3.1.25.46-.08.5-.57.99-.62.83.18 1.58-.03 2.6-.12.6-.03 1.69.89 1.98 0-.19-.35-.66.28-.87-.12.41-.98 2.38-.89 3.22-.37-.26.73-.88.09-1.49.12-.29.04-.23.43-.62.37-.16.31.49.39.12.5-.62.29-1.3.52-2.23.5-2.56 1.98-7.06 2.04-9.55 4.09-2.61-.1-4.05 1.53-6.2 1.49-.42.74-1.38.94-2.11 1.36-.87-.5-2.01.1-2.48.74-2.53.05-5.05 1.79-7.69 1.74-.79.92-2.64.5-3.35 1.24 1.72-.1 3.58-.51 4.96-.25.82-.67 2.22-.75 3.35-1.12.4.02.37.46.74.5.49-.83 2.23-.94 3.35-.74.85-.51 2.05-.68 3.22-.87.01.32.48.18.5.5-.22-.02-.29.12-.25.37.36.15.61-.87 1.49-.62.42-.05.22.52.62.5 1.14-.21 2.81-1.11 4.46-.75-3.52.78-6.2 1.65-9.42 2.73 1.94.36 3.21-.39 4.96-.74.23.26.53.46.99.5 1.92-.96 5.03-.9 7.32-.62 1.76-.75 3.52-1.33 4.71-2.36-3.14.4-5.57 2.16-8.55 1.12-.03-.48.75-.16.74-.62-.19-.02-.46.04-.5-.12 1.25-.86 2.43-2.1 4.34-1.49 1.05-.38 2.49-1.61 3.6-1.12-.45.88-2.37.27-2.48 1.49 1.02-.15 1.83.26 3.1 0 .3.26-.4.63 0 .99 1.4-.44 2.86.13 4.09-.25-.02.4-.55.27-.74.5.16.17.54.12.87.12-.28.86.7.45.99.75-.18.44-1.2.04-1.24.62.4.02 1.27.21.99.5-.48.07-.61-.22-1.12-.12-.23.27-.54.46-.74.74-1.53.33-2.33 1.38-3.97 1.61-.23-.35-.64-.52-1.12-.62-.22.37.04.63-.12.87-1.05.07-1.67.57-2.6.74.44.52 1.09.81 1.36 1.49-2.55.84-5.1 1.67-6.94 3.22-1.68-.05-3.64.11-4.71 1.24-.56.14-1.46-.06-1.49.62 1.27.21 1.86-.07 2.73-.5.19.26.55.36.87.5 1.27-.56 3.1-1.04 4.46-1.12 1.85-.59 3.3-1.58 5.33-1.98.95-1.03 3.12-.84 4.09-1.86.65-.01 1.12-.21 1.86-.12.26-.31.51-.64.99-.74 2.43.26 4.85-.38 6.7-.62.13-.12.04-.46.37-.37 2.38-.76 4.41-1.88 6.45-2.98.7 0 .99-.36 1.61-.12.31-.7.09-1.16.5-1.74-.23-.38-.7.25-.87-.12.25-.28.85-.23.87-.74-.07-.3-.8.06-.74-.37.67-1.03 2.28-1.11 2.73-2.36.24-1.07-.69-.96-.87-1.61zM81.33 44.6c.64-.82 2.83-.49 3.22.37-.85-.2-2.3.05-3.22-.37zm3.6 10.91c.41-.74 2.52-.99 3.22-.62-.95.52-1.69.56-3.22.62zm2.23-2.98c-.54.09-.55-.36-.99-.37.75-.8 2.06-.82 3.22-.37-.67.32-1.76.22-2.23.74zm2.85-.5c.88-.71 3.26-1.36 3.97-.12-1.18.46-2.61.51-3.97.12zM74.14 64.3c.53 0 .87-.21 1.49-.12-.16.26-1.51.97-1.49.12zm2.98.87c-.12-.37.28-.22.5-.25-.03.22-.21.28-.5.25zm1.36-.12c-.04-.33.17-.41.5-.37-.11.18-.19.39-.5.37zm1.36.37h-.25v-.25h.25zm17.73-.12c.02-.15.23-.1.37-.12-.02.15-.23.11-.37.12z"/><path d="M87.78 64.06c-.13.42.39.19.62.25.02-.5-.32-.33-.62-.25zM76.5 65.43v.25h.25v-.25zM76.38 66.05c0-.56-1.09-.46-1.12 0 .4-.2.67-.06 1.12 0zM77.86 66.17c-.05-.05.08.08 0 0zM74.27 67.04c.63.13.71-.28 1.24-.25-.18-.74-1.11-.16-1.24.25zM69.31 68.53c.67-.9 2.77-.38 3.22-1.49-.96-.04-1.69.26-2.85.12.12 1.43-1.39.54-1.98 1.12.21.41 1.04.2 1.61.25zM73.65 67.04c.1-.03.24 0 .25-.12-.1.03-.24 0-.25.12zM81.21 68.4c1.28.85 2.92-.23 3.72-.99-.56-.06-1.02-.22-1.61-.25-.15.19-.15.51-.37.62-1.46.1-3.06.63-4.22.62.36.71 1.72.41 2.48 0zM61.99 68.03c.15-.02.35.02.37-.12-.15.02-.35-.02-.37.12zM66.08 68.77c-.19-1.01-1.92.03-1.24.5.12-.73.61-.31 1.24-.5zM58.4 68.53c.12.5.91.33 1.36.5.01-.66-.89-.68-1.36-.5zM56.91 69.15c-.22.03-.62-.35-.74 0 .16.17.66.45.74 0zM59.76 69.89c-.11.31-.24.85.25.87-.02-.36-.02-.68.37-.62.44.48 1.28.32 1.74-.12-.56-.5-1.41.03-2.36-.12zM55.05 70.39c1.05.93 2.61.6 3.84.37v-.62c-.39-.36-1.43-.29-1.61.25-.8.23-1.81-.8-2.23 0zM50.59 70.51h-.37v.25h.37zM48.97 71.13c-.35.1-.32-.17-.62-.12-.14.48.44.44.12.74.33-.04.42-.33.5-.62zM44.39 71.63c-.46-1.08-1.98-.03-2.48.37 1 .32 1.48-.35 2.48-.37zM47.61 71.38c-.19.01-.43-.02-.37.25.21 0 .32-.1.37-.25zM86.05 71.38c-.22.03-.62-.12-.5.25.28.04.47-.03.5-.25zM41.66 72.25c-.48.02-.04-.1-.12-.37-2.15 0-4.76-.04-6.82.12 1.45.92 5.15.65 6.94.25zM45.26 72.12c.18.41.31-.48 0 0zM33.48 72.49c-.68-.04-.6-.12-1.24-.25v.5c.53-.19.96.24 1.24-.25zM42.16 72.74h.62c.03-.23-.14-.27-.12-.5h-.5zM44.14 72.37c-.05-.05.08.08 0 0zM37.2 83.03c-1.99-.29-3.35.26-5.33 0 .1-.14.16-.33.12-.62-.64-.34-1.87.09-2.36-.12.16-.33.74-.25.74-.74-3.37-.62-6.01.05-9.17-.5.21-.21.91.08.87-.37.05-.3-.56.07-.37-.37.77-.08 1.14-.08 1.86-.37 1.39.48 2.76.34 4.46.37 1.3-.94 3.59.16 4.46-.99.65.04.74-.13 1.24 0-1.35-1.04-3.52.65-5.21-.25.34-.16.77-.23.87-.62-1.58-.55-3.17-.38-4.84-.74.58-.31.92-.2 1.36-.5-1.25-.44-2.4 1.2-3.35.12.68-1.05 2.4.24 2.6-1.12-.15.01-.08-.18 0 0 .26-.05.33.09.5.12.21-.08.2-.37.37-.5.44.07 1.12.29 1.24-.25-1.37-.24-2.93.34-4.34 0 0-.62.42-.82.74-1.12-.33-.67-2.15.17-2.48-.5.59-.12 1.04-.36 1.24-.87-.12-.13-.46-.04-.37-.37-.5-.12-.37.37-.87.25-.36-.65-1.24-.45-1.98-.25.29.87-.82.33-.87.87.13.36.79.2.99.5-.99.86-2.52-.02-3.22.87-1.46-.7-2.75.45-4.84.12.08-.12.29-.46-.12-.37-.6.29-3.12 1.78-3.6.62 0 0 .75-.62.5-.99.62-.12 1.2-.29 1.98-.25-1.48-.93-4.76.99-4.96-.5-1.6.06-3.18.12-4.46.5.5.33 1.69-.04 1.74.74-.11.31-.86-.04-.99.25.6 1.3 2.14 1.66 3.72 1.98-.21.43-.05.43.25.62-.25.5-.77.33-.99.62.49.05.69.39.99.62 1.02-.3 2.6-.64 3.6-.25.06.39-.22.44-.12.87.93.97 2.88.17 4.59.5-1.01-.04-1.29.18-1.98.62-.64-.09-1.57-.31-1.74.37 2.22.31 4.96.1 7.07.74-.88-.03-1.48.08-1.98.12.67 1.41 2.28-.29 3.35.12.11-.31 1.11-.37 1.36-.12-.99.83-2.79.85-3.72 1.74 4.05.33 7.02-.18 10.29.25.46-.11 1.07-.49 1.24.12-1.89.04-4.02.14-6.32 0-.51.49-2.07-.09-2.11.87 3.53 1.07 8.83.54 12.52-.5 2.23-.17 5.3.51 5.83-1.36zm-8.93-3.72c-.26.05-.33-.08-.5-.12-.04-.22.69-.22.5.12zm-5.83-3.6c-.37 0-.76.01-.74-.37.43-.04.81-.29.74.37zM4.09 74.59c.39-.06.44.22.87.12-.22.16-.93.47-.87-.12zm1.12.25c.05-.34.59-.51.87-.25-.19.18-.54.2-.87.25zM24.8 82.9c.01-.32.46-.29.62-.12.02.27-.44.06-.62.12zm6.32.12c-.12-.37.28-.22.5-.25-.03.22-.21.28-.5.25zM27.77 72.74c-.59.03-1.4-.16-1.49.37.33.05 1.43.22 1.49-.37zM75.88 73.49c.04-.28-.03-.46-.25-.5-.19.19-.14.55.25.5z"/><path d="M15.25 73.11c-.1.03-.24 0-.25.12.1-.03.24 0 .25-.12zM17.48 73.11c-.66.11-1.46-.13-1.24.5.42-.39.95.06 1.24-.5zM28.64 74.23c.37-.16 1.06-.01 1.36-.25-.29-.17-1.24-.14-1.36.25zM0 74.23h.37v-.25H0zM46.25 73.98c-2.16-.26-3.19.62-5.21.5 1.37.86 3.65.02 5.21-.5zM39.43 74.35c.42.38.38-.46 0 0zM37.94 75.47c.29-.04.53-.13.62-.37-.44-.01-.67-.24-.74-.62-.51.03-1.09-.01-1.12.5.43.15 1.19-.03 1.24.5zM8.56 74.73c.09.53.91.33 1.49.37-.1-.64-.85-.12-1.49-.37zM34.72 75.22c.14.49.14-.49 0 0zM26.91 76.46c.19-.3-.42-.37-.37-.12.08 0 .15.02.12.12zM32.73 76.96c.46-.07.88-.19.87-.75-.69-.15-.8.28-.87.75zM35.58 76.34c-.25-.19-1.11-.19-1.36 0 .08.76 1.13.42 1.36 0zM82.95 76.96c.75.05 1.21-.2 1.36-.75-.62.09-1.1.3-1.36.75zM26.16 77.45c.38.23.82-.37 1.12-.62-.08 0-.15-.02-.12-.12h-.25c.14.63-.88.11-.74.75zM28.77 76.71h-.25v.25h.25zM27.65 77.08h.25v-.25h-.25zM74.76 78.45c-1.8.78-4.64.84-6.2 1.49-.05.47.24.58.37.87.78-.34.9-.58 1.74-.12.14-.27.43-.4.74-.5 2.59.23 3.84-.87 5.95-1.12 1.33-1.23 4.19-.94 5.58-2.11-3.51-.24-5.32 1.45-8.18 1.49zm-4.22 1.61c.18-.41.31.48 0 0zM70.3 77.58h.37c.02-.27-.1-.39-.37-.37zM4.46 77.83c-.1.03-.24 0-.25.12.1-.03.24 0 .25-.12zM68.07 77.95c-1.53 1.39-3.81.16-5.33 1.36 1.33-.75 4.85.54 5.33-1.36zM36.7 79.07c-.31.1-1.07-.24-.99.25.08.16.95.04.99-.25zM8.18 79.56h.25v-.25h-.25zM59.39 80.06c.65-.37.9.31 1.74.12-.1-.54-.69-.22-1.12-.62-2.2.57-4.91.63-6.57 1.74-.56-.04-1.16-.29-1.24.37 1.66.92 3.16-.98 4.34-.12.27-.81 2.54-.65 2.85 0 .58-.29 1.08-.66 1.98-.62-.35-1.04-1.59.22-1.98-.87zM67.08 80.18c-.07.71 1.27.64 1.24 0-.28-.24-.93-.11-1.24 0zM36.82 81.17c-.1.03-.24 0-.25.12.1-.03.24 0 .25-.12zM51.95 82.91c1.09.28 2.33-.31 3.1-.74-1.35 0-2.2.11-3.1.74z"/><path d="M48.6 83.65c.78-.21 1.7-.28 1.98-.99-2.17.68-4.7.13-6.2 1.36.36.36.6-.42.87.12-2.23.97-4.2.72-7.19.87-.55 1.04-2.4-.13-3.35.5.15.02.1.23.12.37 1.52.49 3.56.06 4.46.62.44.03.45-.37.87-.37 1.85.59 4.53-.85 6.32-.37 2.85-1.12 6.71-1.23 9.18-2.73-2.18-.25-4.95 1.61-7.07.62zm-3.1.5c.15-.35.76-.23 1.24-.25-.28.21-.73.26-1.24.25zm1.98-.37c-.03.37-.52-.12 0 0 .05-.28.66-.1.74 0-.15.38-.43-.13-.74 0zM56.29 83.16c.1-.03.24 0 .25-.12-.1.03-.24 0-.25.12z"/><path d="M26.16 86.13c1.1.57 2.97-.52 4.22.37 1.05-.2 3.35.15 4.46-.62-3.18.35-6.62-.71-8.68.25zM25.67 86.26c.1-.03.24 0 .25-.12-.1.03-.24 0-.25.12zM239.02 32.71c-.44-.08-.4.33-.59.49.31-.06.6-.12.59-.49zM264.87 55.62h.2v-.2h-.2zM231.74 67.32c0 .3-.06.65.29.59.05-.35-.08-.51-.29-.59zM225.35 53.95c.11.39.11-.39 0 0zM243.93 28.39c-.02-.15.04-.36-.1-.39-.02.17-.17.22-.39.2v.39c.3.07.12-.34.49-.2z"/><path d="M226.33 62.11c.33-.78-.66-2.1.59-2.16.19.07.26.26.29.49-.37.16-.44.61-.59.98.36.06.49-.62.69-.39.39.56.49 1.41 1.08 1.77.16-.75.77-1.74.29-2.26.12-.15.41-.12.39-.39-.53 0-.29-.76-.79-.79.02-1.19.53-1.89.79-2.85-.6-.01-.5.68-1.08.69-.35-.65.31-1.7-.29-2.06.34-.07.66-.02.89-.39.05-.5-.35 0-.29-.39.19-.1.4-.19.29-.59-.18-.01-.21.12-.39.1.17-.58.45-1.06.69-1.57-.6.16-.76.75-1.18 1.08.03-.16-.09-.17-.1-.29.49-.8 1.16-1.91 1.28-2.75-.47-.08-.44.35-.89.29-.02-1.25 2.11-1.34 1.57-2.46.04.53-.49.5-.88.59-.4.49-.85.92-1.48 1.18.01.39-.27.84-.59.59.18-.37.68-.43.49-1.18 1.99-1.75 3.4-4.07 5.11-6.1-.39 0-.87.43-1.08.3.25-.6 1-.7 1.18-1.38-.53-.32-.5.65-1.08.59a.522.522 0 0 1-.3-.3c.49-.59.98-1.18 1.67-1.57.08-.31-.16-.3-.2-.49 1.22-1.46 2.92-2.46 4.03-4.03-.17-.03-.49.28-.59 0 1.14-1.12 2.36-2.16 3.74-3.05.93-1.66 2.35-2.82 3.54-4.23-.44.07-.23-.16-.2-.39-.45.05-.29.69-.69.79-.13-.14-.43-.1-.69-.1-.03.76-.95.62-1.08 1.28-1.09.38-1.6 1.35-2.85 1.57.06.53-.59.5-.39.88.13.27.56-.54.69 0-1.49.54-2.15 1.92-3.25 2.85-.03-.13-.25-.08-.39-.1-.21.57-.8.77-1.08 1.28-1.26.74-2.28 1.72-3.15 2.85-.58.37-1.53.37-1.67 1.18.36.09.61-.43.88-.1-.84.8-2.26 1.02-2.65 2.26.08.26.46-.22.49.2-.09.53-.6.65-.79 1.08-.09.32.32.13.3.39-1.57.4-1.22 2.71-2.65 3.24-.02.5.33.02.39.39-.08 1.39-.96 1.99-1.87 2.56.17.32-.59 1.34 0 1.77-.55 1.02.22 2.3.02 3.15l.22 1.07c.14-.04.11-.25.35-.19.37.06-.09.46.39.49-.06-.55.64-.34.49-.98-.24-.2-.48.17-.69-.1.01-.58.29-.89.69-1.08.26.26-.12.3-.1.59.18.08.4.13.49.29-.08.21-.25.34-.2.69.82.38 1.17-.3 1.28-.69.43.21-.02.72.2 1.08-.28.15-.46.4-.89.39-.07.36.17.42.1.79-.75.22-.43.67-.39 1.38-.11.22-.39.27-.49.49.07.35.23.62.59.69.12-.56.78-.19.98-.79-.18.67.27.71.39 1.08-.2.31-.38.41-.2.88-.43 0-.87-.02-.88.39.25.24.21.78.2 1.28.8-.22-.07-1.8 1.28-1.77zm1.18-11.31c.11-.08.26-.13.49-.1-.14.19-.05.6-.49.49zm11.5-18.09c.01.37-.28.44-.59.49.19-.17.15-.57.59-.49zm-12.58 26.94c-.03-.16.09-.17.1-.29h.2v.29h-.29zm.2-.88c-.07-.3.27-.19.2-.49.46.02.01.52-.2.49zm.59-7.37c-.1.2-.24.34-.39.49-.23-.15.16-.49.39-.49zm-.49 2.46c.37-.07.21.64-.1.49-.03-.23.01-.38.1-.49zm0 1.18c.21.08.35.24.29.59-.15.12-.4.12-.49.3-.31-.28.04-.74.2-.89zm-3.83 0c-.08-.51.25-.6.69-.59-.12.31-.33.52-.69.59zm1.08-1.67c.04.24-.18.21-.1.49-.35-.07-.13-.45.1-.49.14-.06-.01-.12 0 0zm.2 2.16c.11-.39.11.39 0 0zm.88 3.74c.02.19-.11.22-.1.39-.17.03-.18-.55.1-.39.19-.3.21-.77.49-.98.22.32-.16.89-.49.98z"/><path d="M236.56 33.5c.24.38.14-.33 0 0zM275.39 51c.48-.35.34-1.09.2-1.67.49-.56.37-1.3.59-1.97-.12-.17-.59 0-.59-.3.03-.33-.08-.8.1-.98-.1-.23-.54-.12-.69-.29-.25-.76-.43-1.49-.39-2.16.15-.31.81-.11.59-.79-.29 0-.33.26-.59.29-.62-.53-.21-1.65-.2-2.36-1.49-2.45-3.37-5.87-6.77-7.06-.42.46-1.53-1.29-1.96-1.08-.16.33.42.42.1.59-1.3-.14-2.29-.88-3.29-1.17-3.64-1.04-6.92-2.15-10.54-1.58-2.54.4-4.64.73-7.12 1.98-.83.45-2.41 1.1-3.01 1.78.11.67-.71 1.42-.8 1.89.05.28.86-.61.89-.32.04.24-.18.21-.1.49 1.27 1.58 2.21 2.02 4.25 2.82.19-.11.46-.12.69-.2 2.73-.13 4.77-.26 7.83.18v.49c1.96.63 4.03 1.5 5.76 1.85 1.54-.36 5.42 1.45 5.9 3.45.94 3.91-.73 7.41-1.47 10.62-.78.24-.62 1.42-1.18 1.87.02.55-.22.83-.29 1.28.17.06.41-.29.49 0-.21.45-.88.43-.79 1.18-.28.08-.4.32-.79.29-.3.81-1.01 1.22-1.77 1.57-.58 1.64-1.9 2.56-3.54 3.15-.14.22-.34.38-.49.59-2.25 1.22-5.28 2.19-8.16 2.46-.11.28-.43.19-.69.1-.2.25.1.45-.1.59-2.11-.05-2.8.34-4.42.2-.14.28-.13.72-.39.88-1.37.49-2.83-.24-4.03.59.37.53 1.16.04 1.38.69-.4-.2-.67-.2-1.18-.1-1.72-.7-4.3-.38-4.52-2.75.29.11.19.54.59.3.07-.72-.63-.68-.79-1.18-.1.09-.03.36-.29.3-.41-.24-.56-1.24-.2-1.67-.99-.25-.95-1.54-1.38-2.36.19.04.18.28.49.2.12-1.01-.63-1.14-.98-1.67.28-.52-.34-1.05-.2-1.47-.64.16-.04.53-.39 1.08.11.18.52.07.39.49-.14.02-.16.16-.29.2-.26.03-.08-.38-.39-.29-.06.27-.41.25-.39.59.26 0 .58-.05.59.2-.26 1.48 1.42 2.36.49 3.54-.28-.08-.06-.66-.49-.59-.49.16-.31 1.09-.39 1.38-.63.14-.7-.28-1.18-.29-.42.39.34.85-.39.98-.55-.04-.4-.78-.49-1.28-.73.68-.45 1.92-.89 2.75.32.2.23.23.2.69.75.49 1.87.62 2.56 1.18-.08.71.41.65.2 1.28.87.46 1.86.18 2.65.69-.04.35-.22.57-.2.98.67.24-.92-.91-.63-.28-.39.3-1.08.3-1.28.79 0 .51.49.76.2 1.28.65.04.72.66 1.18.88-.14.13-.1.43-.1.69.75.66 4.48 2.01 4.86 3.04.79.39 1.76.6 2.65.88 0 .16-.25.08-.2.3.8.17 1.35.34 2.26.2 3.18.89 6.79.1 9.04-1.28.07-.36.34-.51.39-.88-.41-.17-.54.43-.79.1.39-1.15 2.32-.76 2.85-1.77-2.45-.35-4.67.7-6.78.69-.02.15.04.36-.1.39-.95.24-1.88.14-2.65.39-.51-.87-2.45-.3-3.34-.79 1.12-.43 2.94-1.31 3.93-.69.26.03.08-.38.39-.29 1.72.15 2.96-.18 4.33-.39.26-.03.08.38.39.29.79-.1 1.37-.58 2.26-.29.28-.01.17-.42.49-.39.64.1.73-.25 1.08-.39 1.51-.62 3.47-.61 4.62-1.38.54.25 1.23-.6 1.77-.1-.57.94-2.69.32-3.05 1.47 1.48-.29 2.72-.82 3.74-1.57-.12-.02-.28.02-.29-.1 2.01-1.4 4.85-1.97 6.19-4.03.41.11.38-.21.69-.2 0-.63-.1-1.34.69-1.18-.04-.24.18-.21.1-.49 1.26-.74 1.88-2.12 2.46-3.54.94-.96 1.81-1.99 2.26-3.44.93-.57 1.53-1.48 1.57-2.95 0-.16-.27-.05-.29-.2.69-2.26 1.71-4.19 1.87-6.98-.04-.42-.42-.5-.49-.89zm-43.35 16.91c-.35.06-.3-.29-.29-.59.21.08.35.24.29.59zm5.8 11.7c-.3.14-.74.08-.69-.39.31-.14.8-.15.69.39zm.98-3.34c.66-.04 1.05.19 1.57.29-.42.55-1.35.34-1.57-.29zm26.25-20.65h-.2v-.2h.2zM234.2 35.37h-.39v.2h.39z"/><path d="M264.8 32.83c.25.38.14-.33 0 0zM228.6 39.59c-.21.11-.64.02-.69.29.35.02.59-.07.69-.29zM228.2 40.38c-.17 0-.3-.02-.39-.1-.07.46-.65.4-.69.89.65.03.85-.4 1.08-.79zM227.12 41.66c-.02-.17.1-.49-.2-.39-.68.89-1.5 1.64-2.06 2.65.87-.63 1.6-1.41 2.26-2.26zM224.66 44.41c-.23.06-.46.13-.49.39.23-.06.46-.13.49-.39zM223.29 47.56c.44-.19.75-.5.88-.98-.31.02-.72-.07-.88.1-.13.26-.3.49-.39.79.15.02.36-.04.39.1zM223.19 47.75c-.53.09-.77.47-.79 1.08.4-.22.58-.66.79-1.08zM223.58 48.34c.09-.17.4-.12.3-.49-.25-.05-.56.35-.3.49zM228.79 53.26c-.1.13-.1.36-.2.49.24.07.42-.42.2-.49zM229.58 57.09c.21-.35.43-.68.59-1.08-.85.18-1.26 1.79-1.08 2.36.18-.48 1.05-.26 1.08-.89-.37.04-.58-.08-.59-.39zM224.47 57.29c-.24.33.33-.24 0 0z"/><path d="M230.17 57.49c.21.02.31-.08.29-.3-.21-.02-.31.08-.29.3zM224.07 58.57c-.16-.16-.58-.08-.88-.1v.49c.44.02.9.05.88-.39zM229.97 60.34c-.31.02-.47.18-.49.49h.39c-.08-.28.14-.25.1-.49zM229.28 61.02c.17.04.19-.08.2-.2h-.2zM227.61 65.94c.08-.58.33-1.44-.1-2.06-.09.3-.31.48-.39.79-.69-.16-.33-1.37-.69-1.87.2-.2.5-.29.59-.59-.63-.51-1.09.61-1.37 1.08.3 0 .5.09.59.3-.07.77.25 1.72-.29 2.36.3.26.3.82.49 1.18.86-.03.51-1.26.79-1.87.16.2.15.57.39.69zM230.46 63.68c-.36-.09-.08.44-.39.39.04-.27-.54.08-.49-.2-.03-.36.02-.64.1-.88-.32-.16-.38.02-.79 0 .2 1.07.02 1.93-.29 3.15.23.16.46.32.88.29.42-.47.19-.83.1-1.48.32-.26.55-.02.88-.29 0-.5.12-.56 0-.98z"/><path d="M230.07 63.29c-.06-.14-.12 0 0 0zM230.07 63.29c-.09.41.29.02 0 0zM227.32 66.83c.1.41-.39 1.12.1 1.28.15-.38.11-.93.29-1.28zM271.56 66.92c.14.33.24-.38 0 0zM234.89 69.18c.26.03.32-.14.3-.39h-.3zM232.04 72.92c-.03.13-.14.19-.1.39h.29c-.02-.17.1-.49-.2-.39zM232.43 74.1h.29v-.29h-.29zM229.73 73.52c.38 0 .42.69.79.39-.07-.27-.55-.62-.79-.39zM256.22 76.75c.28.02.54.01.49-.29-.17.09-.53 0-.49.29zM167.54 17.6c-.07.04-.04.16-.03.22l.86-.43c-.08-.1-.4-.13-.27-.28-.14-.09-.31.13-.27.3l-.02-.21c-.09.32-.44-.06-.38-.25h-.01l-.13 1.15c.23-.05.01-.38.25-.51zM149.61 25.54c-.02.05-.04.11-.05.18.09-.09.08-.14.05-.18zM168.04 10.93l-.26.45c0-.15-.18-.02-.17-.21-.02.03-.13.15-.06.2l.07-.05c-.03.46.16.54-.04.98.31.12.31-.13.34-.35.02-.04.05-.07.08-.1l.07-.66-.04-.27zM153.88 20.92l.04.12c0-.07.05-.16-.04-.12zM167.27 18.38l.03-.27h-.08c.03.07.05.16.05.27z"/><path d="m167.43 16.97.03-.25c-.09.13-.21.25-.33.45l.3-.21zM166.86 18.29c-.1.27.1.5-.18.65.03-.22-.12-.61-.41-.52-.52.66-.51 1.81-.92 2.6-.15-.24-.61.07-.88.12-.04-.32.1-.48.26-.63-.12.04-.33.13-.48.19l.2.57c-.64.38-.04-.51-.4-.46-.16.14-.13.38-.21.5.45-.43.25.7.73.34.1.4-.19.59-.42.58-.38-.26.06-.35-.07-.72-.19.16-.12.21-.11.45-.38.08-.49.77-.93.38-.21.2-.11.36-.16.61.16.39.46.02.7.28-.03-.02-.1-.07-.12-.13l.25-.02c-.26-.04-.15-.39-.06-.47.07-.05.22-.14.25-.02l-.08.14c.21.05.2-.44.46-.31.05.08 0 .15.03.21.05-.35.24-.42.41-.73l.03.45c.01-.52.55-.63.99-.58-.07-.05-.16-.06-.15-.15.15-.19.43 0 .43.24.04-.4.86-.09.92-.62l.28-2.49c-.02.07-.05.13-.09.17-.27-.28-.31-.21-.27-.61z"/><path d="m164.79 20.46-.05.05.06-.02s0-.02-.01-.03zM166.78 17.61c0-.09.03-.13.03-.22-.01.04-.04.07-.05.11-.01.05 0 .09.02.11zM167.13 17.99l.03.12h.05a.228.228 0 0 0-.08-.12zM160.78 20.2l-.04.09s.04-.05.04-.09z"/><path d="M165.1 19.88c.16.02.24-.28.44-.25-.13-.11-.02-.58-.3-.23.02-.03-.01-.06 0-.09-.33-.08-.27.3-.47.4-.19-.08.09-.32-.05-.32-.19.25-.88.22-.61.74-.17.13-.25.02-.35-.05-.02.7-1.21.29-.86 1 .09-.08.28-.15.36-.38l.24.5c.22-.14-.15-.39.17-.55l-.11.02c.16-.28.61-.4.89-.55.04.17.26.1.34.35.16-.15.33-.29.31-.58zM172.24 17.06v.13c.02-.07.02-.1 0-.13zM168 16.56l-.27.05-.02.05c.05.08.4.13.29-.09z"/><path d="M193.04 4.49c-.29.09-.75.07-.78.29l.18-.07-.18.65c-.1-.16-.3.28-.43 0 .11-.12.24-.17.33-.25-.08-.11-.4.11-.56.15h.23a.97.97 0 0 1-.19.25c-.18-.35-.37-.69-.54-1.02.01-.02.03-.05.04-.08.01.06 0 .09.05.08.34-.1.23-.66.6-.55l.04.17s.1-.23-.01-.39c-.19.16-.19.25-.41.3 0-.18.12-.38.25-.44l-.12-.28c.02-.37.39-.02.41-.39l-.28-.09s.01-.03.02-.04c-.07.07-.13.14-.12.22-.21.29-.55-.04-.67-.16-.18-.02-.12-.37-.22-.53-.19.16-.03.46-.21.62-.09-.01-.08-.1-.06-.14l-.07.18c-.09-.06-.2-.14-.32-.23.04-.01.08-.04.12-.05-.07 0-.14-.02-.21-.02-.25-.19-.48-.4-.53-.54.04-.04.07-.08 0-.13-1.38.34-3.06-.06-3.91-1.76-1.02.51-1.52 1.37-1.51 2.39-1.27.71-3.22.91-3.91 1.89-.15.04-.29.11-.44-.06-.2.55-.8.7-1.2.31-.55.33-1.09.41-1.64.63-.08.28.42.16.32.44-.26 0-.51.1-.76.16.09.14-1.8 1.42-3.66 2.68-.47-.03-.6.17-.65.44-.29.2-.58.39-.85.58-.02-.03-.05-.05-.08-.08-.02.05-.02.1-.03.15-.11.08-.22.15-.33.23-.07-.15-.24-.22-.07-.38-.38.08-.55.21-.55.63-.39.6-.37-.35-.82.11v-.19l-.31.22.21.14-.29.43c-.14.34.22.2.26.37l-.05-.32c.2-.01.31-.37.44-.18-.06.04-.1.09-.12.14-.15.13-.23.22-.2.25.04.03.12-.03.19-.08 0 .05.02.1.02.15-.09.04-.18.09-.21.15-.06.12-.06.27-.1.41l-.13.13v-.05s0-.06-.02-.09c.05-.01.08-.05.12.04-.01-.39-.26-.37-.5-.29l.07.28c-.26-.05-.49-.22-.69.01l-.14 1.2c-.11.06-.23.11-.35.17-.1.01-.18.02-.21-.19-.08-.11-.02-.21.12-.21.03.02.01.06.05.08-.04-.17-.12-.37-.34-.47.16-.03.19-.01.24-.17l-.16.03c.19-.16.34-.68.23-.9.09.35-.2.1-.34.1.06-.1.16-.37 0-.34.01.15-.3.52.04.51-.08.14-.16.37-.34.35.08-.23-.07-.29-.13-.52-.05.25.06.47.09.59-.53-.07-.96-.56-1.31-.12-.04.07.23-.23.29 0-.16.52-.61-.17-.83.12l.25.31c-.06.1-.25.27-.34.35-.08-.11-.5-.2-.33-.42-.59.03-.07.96-.69 1.12.3-.03.32-.07.53-.17-.12.3.04.17.14.43-.24-.16-.57.24-.42-.19-.18.07-.54.21-.55.39l.21.05c-.26.11-.4.45-.38.75.3-.18.07-.62.49-.77.55.04.02.3.47.51l.19-.4-.16.03c-.12-.37.49-.19.25-.6.47.18.46-.07.96.07.01-.18-.12-.13-.22-.1.18-.07 0-.48.34-.35.14 0-.11-.31-.31-.21.18-.07.31-.22.53-.26l-.33-.17.2-.1-.25-.07c.37-.23.84-.39 1.22-.13-.2.44-.82.6-.8 1.14.14.09.12-.45.4-.11l-.02-.3c.08-.14.31-.37.45-.13-.23.34-.21.6-.27.9v.05h-.02c0-.02.01-.04.01-.06 0-.01-.01-.03-.02-.05v.11c-.16.06-.3.12-.45.18a.832.832 0 0 1-.02-.13c-.26-.06-.37.13-.47.34-.23.1-.46.21-.66.33-.12-.04-.24-.04-.22-.14-.22.05-.26.28-.32.49-.04.03-.07.06-.1.08-.14-.06-.34.13-.32-.11l-.06.44c-.21-.05-.44.28-.61.07-.13.15.12.37-.16.37-.01-.06-.05-.08 0-.09-.16-.06-.41.06-.44.28.2-.01.07.05.29 0 .06.14-.06.44-.36.38.14-.48-.4-.22-.34-.47-.49.19-.54.78-.79 1.29-.44.28-1.09.41-1.31.89h.05l-.12.29c-.13.06-.17-.36-.33-.17-.09-.35.31-.22.4-.54-.49-.14.17-.46-.18-.6.17.69-.68.45-.82.93-.32.07 0-.33-.16-.3v.24c-.14 0-.21-.05-.27-.19-.36.05-.66.32-.79.71.27-.3.03.36.36.2-.04.16-.23.32-.43.43.15-.19-.48-.33 0-.43-.21-.29-.19.16-.4.21.04-.16.17-.46.13-.49-.09.57-1.06.19-1.03.55-.08.38-.29.76-.42 1.15-.37-.1-.58.18-.9.25v-.15c-.2.01-.4.26-.67.32l-.17-.21c-.13.15-.43.33-.68.45.06.14.29 0 .25.22.13-.06.22-.14.11-.26.13-.06.24.16.39.22l-.41.39s-.07 0-.08-.03l.09.27c-.13.06-.19.01-.22-.1-.23.23-.16.61-.49.68.02-.28.03-.46.23-.57l-.33.16c.04-.31.63-.53.35-.87-.29.33-.71.82-.87 1.28-.31-.21-.39.26-.73.27-.07-.04-.19-.08-.2-.23l.07-.05c-.4.12-.72.52-.94.9l-.31-.21c-.61.16.33.42-.21.77-.29-.24-.78.19-.92-.05-.09.08-.15.09-.07.29.11-.02.29-.19.28.09-.15.18-.32.07-.47.16-.01-.06.02-.28-.02-.21-.32.31-1.03.65-1.14 1.34.11-.12.04-.31.27-.3.06.14-.05.16-.05.25.15.24.1-.27.38-.17l-.17.46.29.15-.4 1.03c.68-.11.5-1.2 1.15-1.1-.04.12.07.15.12.2.09-.2.28-.29.29-.5l.25-.11c.06.14.13.52-.12.64.89-.4 1.24-1.42 2.24-1.6.07.05-.08.14 0 .15.08-.14.23-.32.18-.4.01.06.04.17-.03.22.39-.36.84-.06 1.04-.4.1.16-.17.22-.11.27.52-.08.5-.71.96-.93-.04.31.22.2.41.28.27-.39 1.04-.83 1.53-1.27.14.67.64-.29.93.2.13-.06.28-.24.2-.44-.02.13-.27.06-.3-.06.17-.13.44-.28.35-.53 0 0 .23-.32.36-.38.51.35-.19-.32.33-.25 0 .24 0 .43.04.6.22-.05.13-.15.25-.26.12.13.06.47-.04.65l.32.02c.09-.42.31-1.04.74-1.13.02.21-.1.26.12.46.13-.15.19-.59.49-.53-.02.03.01.06 0 .09.26-.45.33-.07.69-.21 0 .03.02.06.03.1l.13-.28c.23-.66.64.05.99.09l-.04.07c.31.21.71-.33.92-.29-.28-.09-.15-.15-.44-.39-.13.15.1.5-.24.51-.11-.31.19-.59.16-.85.15-.09.48.32.58.49.37-.23.67-.17 1.09-.51.07-.29-.1-.98.49-.77l.03.12c-.08-.2.22-.05.23-.23-.29-.24.07-.29-.24-.5.22-.14.46.27.61.51-.04-.51.57 0 .81-.41.02.21-.35.44-.09.57l.22-.72-.2.1c.19-.5.47-.16.74-.12.1.11 0 .22-.11.26.12-.03.26-.17.35-.34.04-.19.32-.53.36-.83h.07v.07c.03-.02.04-.05.06-.07l.21-.02v.08s.03-.05.04-.08l.22-.03.04-.13c.05-.01.1-.03.15-.04.02.04.04.08.08.12.65-.12 1.24-.33 1.73-.58l.63 2.51s.03.08.04.16l-.04-.16c-.05-.1-.11.04-.19.16-.03-.11-.06-.25-.19-.17-.35-.05-.28.48-.49.53l.04-.07c-.23-.01-.45.12-.5.38-.34-.32.48-.35.03-.55.26.03.41-.39.56-.48-.3.03-.71-.24-.75-.51-.44.52.41.86 0 1.25l-.38.08.1.5c-.2.1-.05-.42-.34-.23.01.25-.28.16-.27.32-.04-.1-.09-.21-.25-.15.01.06.11.22-.02.28-.3-.39.28-.24-.06-.57-.38.17-.01.52-.02.7-.01-.06.02-.03.07-.05.06.14-.15.09-.05.25.07-.02.11-.08.14-.15-.04.19.32.2.43.15.14-.34.7-.48 1.02-.7-.02.04-.06.1 0 .15.48-.25.74-.22 1.24-.6l-.09-.35c.48-.25-.19-.99-.11-1.13.09-.08.09-.32.26-.21v.15c.26-.26-.06-.38.23-.47.12-.3-.21.05-.17-.21.32-.07-.12-.71.46-.65.03.11.23.35-.01.52l.37.11c-.25.27-.08.14-.37.32.01.39.14.58.14.91.08-.14-.07-.38.11-.45.25-.02.04.17.07.29.1-.51.47.17.55-.3-.23-.35-.17-.36-.47-.51.12-.21.47-.07.61.27l-.11-.31c.08.05.22-.01.27.06v-.17c-.25-.16-.41-.22-.58 0 0-.24-.37-.44-.11-.65.13-.06.1.16.15.24.55-.54.9.17 1.33-.25-.06.2-.47.16-.61.5.27.19.28-.24.44-.28-.06.2-.04.31.17.36l-.02-.21c.09-.04.24-.14.3-.06-.03-.07-.09-.1-.2-.11.11-.36.48-.68.95-.75.16.39-.47.5-.04.65.13-.15.07-.62.46-.55-.02.28.24.16.3.3l.18-.65c.21-.05.45-.13.57-.33-.04.07-.11.12-.22.14.05-.59.57-.09.83-.45l-.08.23c.3-.03.44-.28.58-.52l.13.28c-.12-.31.11-.56.23-.73l.38-.09c-.17.21-.4.39-.26.63.2 0 .35-.2.36-.38h-.09l.07-.27c.18-.04.36-.09.53-.13-.05.1-.17.17-.05.33l-.38.08.13.28c.3-.13.43-.4.48-.73l.52-.12c.08.07.13.14.14.18.02-.08 0-.15-.05-.21.2-.05.4-.09.59-.13 0 .02.01.02.01.04.11.03.23-.03.37-.13 1.12-.25 2.14-.46 2.97-.59.03-.01.05-.03.08-.04.13-.04.3-.05.45-.05.18-.03.36-.06.55-.09.51-.26.92-.71 1.53-.49.08.08 0 .17.13.25 1.31-1.19 3.3-1.23 4.98-1.32.15 0 .29.15.44.32 2.61-1.2 2.1-3.2 1.15-5.15.1-.04.21-.06.34-.04.01.04 0 .09 0 .14.12-.42.55-.53.56-.96l-.11-.03c-.02.12-.14.2-.23.13.15-.18-.29-.24-.15-.49.21-.29.64-.04.62-.49zm-23.12 14.29.2-.04c-.06.06-.12.09-.2.04zm-.32-7.6s-.01.02-.02.03zm1.33 4.44c.12-.03.25-.07.37-.1v.02c-.02.12-.3.26-.37.08zm4.97-1.14c0-.06.02-.11.03-.16.08-.02.16-.04.23-.06-.08.04-.16.1-.26.22zm.5-.28c.17-.04.34-.08.51-.13-.21.15-.36.13-.51.13z"/><path d="m170.97 9.7.07-.2-.18.04c.07.03.11.32.12.16zM169.02 10.54l-.07-.05-.12.21.07.05zM173.33 16.29c.2.23.07-.04.27-.06l-.05.35c.16-.03.13-.39.06-.44zM158.62 16.36c-.04.16-.09.42-.02.61.46.02.15-.76.56-.82.08.2.05.42.27.28l-.04.07c.27-.39.5.29.48-.35l.13.28c.07-.29.4-.45.57-.58v.06c.38-.56.27-.21.8-.62l-.12.45c.27.04.14-.34.31-.37.01.06.15.24.03.36l.48-.83c.07-.29-.13-.19-.21-.29-.02-.21.33-.25.43-.09 0 .09-.14.24.02.3l.03-.55c.46.12.03.69-.06.92.36-.1.32-.44.67-.6-.12.01-.24-.07-.34-.13-.16-.3.23-.32.46-.46-.21-.06-.18-.22-.13-.39.01-.02.02-.04.02-.07l.02-.06h-.03s-.04-.06-.09-.11c-.15.18-.43 0-.55.06.37.44-.37.32-.46.55l-.16.14-.07.03s-.05-.13 0-.28c-.04.14-.35.25-.24.39l-.66.33s-.1.02-.08.04c0 0-2.09 1.38-2.01 1.72zM163.68 13.49c-.19-.08 0-.24-.03-.36l-.44.22c.05.1.07.24.12.34z"/><path d="M162.98 13.22c.02.08 0 .17-.02.26l.24-.12c-.04-.08-.1-.14-.22-.14zM165.68 18.88l-.08.14.15-.19zM164.63 18.8c-.2.1-.14 0-.33.16.17.12.29-.09.33-.16zM165.38 20.55l-.15.19.03.02zM163.68 21.13l.03.02.12-.21-.03-.02zM162.63 21.39s.05-.1.05-.17c-.02.06-.04.11-.05.17zM161.65 22.1c0 .43.32.84.56 1.34.08.1.56-.06.41-.39-.31-.12.15-.43-.28-.33-.13-.19-.08-.53.16-.52.08.2-.12.21.09.35.02-.28.13-.15-.05-.41.12-.28.04-.49.09-.74-.19.24-.84.2-.98.72zM163.19 23.39c.11-.02.13-.06.17-.13-.1-.16-.09.08-.17.13zM159.17 20.73c.02.08-.12.25-.02.35l.22-.22c-.07.02-.13-.06-.2-.14zM159.47 20.77l-.1.09s.06-.03.1-.09zM149.08 26.31v-.06l-.11.17c.13-.08.43-.2.43-.4-.02.15-.32.08-.32.29zM96.55 121.44V82.02h6.24c1.16.09 2.13.53 2.9 1.32.77.8 1.37 2.02 1.8 3.67s.64 3.38.64 5.2c0 1.66-.19 3.23-.56 4.72-.38 1.49-.96 2.69-1.75 3.59 1.03.68 1.8 1.87 2.32 3.54.52 1.68.78 3.66.78 5.95 0 1.85-.16 3.56-.49 5.15-.33 1.58-.73 2.8-1.21 3.66s-1.08 1.51-1.81 1.95c-.73.45-1.61.67-2.66.67h-6.21zM98.3 120l4.34.05c.94-.24 1.7-.82 2.28-1.74s1.03-1.99 1.36-3.21c.33-1.21.49-2.7.49-4.46 0-1.95-.17-3.67-.51-5.17s-.81-2.55-1.41-3.14c-.6-.6-1.43-.9-2.49-.9h-4.05v18.58zm.05-20.1h3.77c1.03 0 1.77-.22 2.23-.67.6-.55 1.04-1.45 1.33-2.69.29-1.25.44-2.81.44-4.7s-.14-3.36-.42-4.59-.66-2.11-1.14-2.62-1.39-.89-2.72-1.13h-3.49zM121.03 115.58V82.01h2.05v34.18c0 1.03.24 1.85.72 2.46.48.62 1.3.92 2.46.92h1.33c1.08 0 1.86-.31 2.34-.92.48-.62.72-1.44.72-2.46V82.01h2.05v35.11c0 1.16-.27 2.16-.82 2.98s-1.51 1.27-2.87 1.33h-4.29c-1.37-.07-2.33-.51-2.87-1.33-.55-.82-.82-1.81-.82-2.98zM145.03 121.44v-39.5h6.34c1.28 0 2.25.36 2.91 1.07s1.19 1.96 1.59 3.76.6 3.78.6 5.95c0 2.81-.33 5.17-.99 7.08-.66 1.92-1.67 3.13-3.04 3.65.5.67.87 1.33 1.13 1.98.55 1.4 1.07 3.15 1.57 5.24l2.51 10.78h-2.39l-1.9-8.24c-.56-2.38-1.03-4.2-1.39-5.45-.36-1.26-.68-2.13-.96-2.63s-.57-.85-.86-1.05c-.21-.12-.55-.18-1.05-.18h-2.21v17.55h-1.87zm1.9-19.09h3.52c1.16-.21 1.97-.7 2.41-1.49.45-.79.82-1.86 1.13-3.23s.51-3.05.62-5.06c0-2.75-.25-4.96-.75-6.62s-1.7-2.59-3.62-2.8h-3.31zM171.05 104.6v11.5c0 1.09.17 1.95.51 2.57s1.13.92 2.36.92h2.51c.99 0 1.62-.29 1.9-.87.27-.58.41-1.44.41-2.57v-12.68h-3.29v-1.95h5.03l.05 7.39v8.62c.03.96-.22 1.83-.77 2.62s-1.2 1.21-1.95 1.28h-5.44c-1.21-.07-2.07-.53-2.55-1.39-.49-.86-.73-1.79-.73-2.82V86.11c0-1.09.26-2.05.78-2.88.52-.82 1.39-1.27 2.6-1.33h5.44c.96.07 1.66.5 2.1 1.28.45.79.65 1.66.62 2.62v8.62h-1.8v-7.24c0-1.13-.14-1.98-.41-2.57-.27-.58-.91-.87-1.9-.87h-3.54c-.62 0-1.09.31-1.42.92-.33.62-.5 1.44-.5 2.46l-.03 8.93v8.52zM193.02 121.44V82.07h11.27l-.03 1.8h-9.24v16.3h8.52v2.03h-8.52v17.3h9.55l.08 1.95h-11.62zM215.97 121.44v-39.5h6.34c1.28 0 2.25.36 2.91 1.07s1.19 1.96 1.59 3.76.6 3.78.6 5.95c0 2.81-.33 5.17-.99 7.08-.66 1.92-1.67 3.13-3.04 3.65.5.67.87 1.33 1.13 1.98.55 1.4 1.07 3.15 1.57 5.24l2.52 10.78h-2.39l-1.9-8.24c-.56-2.38-1.03-4.2-1.39-5.45-.36-1.26-.68-2.13-.96-2.63s-.57-.85-.86-1.05c-.2-.12-.56-.18-1.05-.18h-2.21v17.55h-1.87zm1.9-19.09h3.52c1.16-.21 1.97-.7 2.41-1.49.45-.79.82-1.86 1.13-3.23s.51-3.05.62-5.06c0-2.75-.25-4.96-.74-6.62-.5-1.66-1.7-2.59-3.62-2.8h-3.31v19.2z"/></g></svg>